<?xml version="1.0" encoding="UTF-8" standalone="no"?>
<!-- Created with Inkscape (http://www.inkscape.org/) -->

<svg
   xmlns:dc="http://purl.org/dc/elements/1.1/"
   xmlns:cc="http://creativecommons.org/ns#"
   xmlns:rdf="http://www.w3.org/1999/02/22-rdf-syntax-ns#"
   xmlns:svg="http://www.w3.org/2000/svg"
   xmlns="http://www.w3.org/2000/svg"
   xmlns:sodipodi="http://sodipodi.sourceforge.net/DTD/sodipodi-0.dtd"
   xmlns:inkscape="http://www.inkscape.org/namespaces/inkscape"
   width="102.17013mm"
   height="102.0909mm"
   viewBox="0 0 102.17013 102.0909"
   version="1.1"
   id="svg8"
   inkscape:version="0.92.4 (5da689c313, 2019-01-14)"
   sodipodi:docname="besselk_stat.svg">
  <defs
     id="defs2">
    <inkscape:path-effect
       effect="spiro"
       id="path-effect9416"
       is_visible="true" />
    <inkscape:path-effect
       effect="spiro"
       id="path-effect5402"
       is_visible="true" />
    <marker
       inkscape:stockid="Arrow2Mend"
       orient="auto"
       refY="0"
       refX="0"
       id="Arrow2Mend"
       style="overflow:visible"
       inkscape:isstock="true">
      <path
         id="path4780"
         style="fill:#000000;fill-opacity:1;fill-rule:evenodd;stroke:#000000;stroke-width:0.625;stroke-linejoin:round;stroke-opacity:1"
         d="M 8.7185878,4.0337352 -2.2072895,0.01601326 8.7185884,-4.0017078 c -1.7454984,2.3720609 -1.7354408,5.6174519 -6e-7,8.035443 z"
         transform="scale(-0.6)"
         inkscape:connector-curvature="0" />
    </marker>
    <marker
       inkscape:stockid="Arrow2Mend"
       orient="auto"
       refY="0"
       refX="0"
       id="Arrow2Mend-6"
       style="overflow:visible"
       inkscape:isstock="true">
      <path
         inkscape:connector-curvature="0"
         id="path4780-6"
         style="fill:#000000;fill-opacity:1;fill-rule:evenodd;stroke:#000000;stroke-width:0.625;stroke-linejoin:round;stroke-opacity:1"
         d="M 8.7185878,4.0337352 -2.2072895,0.01601326 8.7185884,-4.0017078 c -1.7454984,2.3720609 -1.7354408,5.6174519 -6e-7,8.035443 z"
         transform="scale(-0.6)" />
    </marker>
    <inkscape:path-effect
       effect="spiro"
       id="path-effect9416-7"
       is_visible="true" />
    <inkscape:path-effect
       effect="spiro"
       id="path-effect9416-3"
       is_visible="true" />
  </defs>
  <sodipodi:namedview
     id="base"
     pagecolor="#ffffff"
     bordercolor="#666666"
     borderopacity="1.0"
     inkscape:pageopacity="0.0"
     inkscape:pageshadow="2"
     inkscape:zoom="1.979899"
     inkscape:cx="207.08651"
     inkscape:cy="205.2534"
     inkscape:document-units="mm"
     inkscape:current-layer="layer1"
     showgrid="true"
     inkscape:snap-bbox="true"
     inkscape:snap-center="true"
     inkscape:window-width="1920"
     inkscape:window-height="1017"
     inkscape:window-x="-8"
     inkscape:window-y="-8"
     inkscape:window-maximized="1"
     fit-margin-top="5"
     fit-margin-left="5"
     fit-margin-bottom="5"
     fit-margin-right="5">
    <inkscape:grid
       type="xygrid"
       id="grid4747"
       originx="1.4142116"
       originy="-198.66504" />
  </sodipodi:namedview>
  <metadata
     id="metadata5">
    <rdf:RDF>
      <cc:Work
         rdf:about="">
        <dc:format>image/svg+xml</dc:format>
        <dc:type
           rdf:resource="http://purl.org/dc/dcmitype/StillImage" />
        <dc:title></dc:title>
      </cc:Work>
    </rdf:RDF>
  </metadata>
  <g
     inkscape:label="レイヤー 1"
     inkscape:groupmode="layer"
     id="layer1"
     transform="translate(1.4142116,3.7559181)">
    <path
       style="fill:none;stroke:#000000;stroke-width:0.5;stroke-linecap:butt;stroke-linejoin:miter;stroke-miterlimit:4;stroke-dasharray:none;stroke-opacity:1;marker-end:url(#Arrow2Mend)"
       d="M 10,87 H 94.999999"
       id="path4751"
       inkscape:connector-curvature="0" />
    <path
       style="fill:none;stroke:#000000;stroke-width:0.5;stroke-linecap:butt;stroke-linejoin:miter;stroke-miterlimit:4;stroke-dasharray:none;stroke-opacity:1;marker-end:url(#Arrow2Mend-6)"
       d="M 10,87 V 2.000001"
       id="path4751-0"
       inkscape:connector-curvature="0" />
    <path
       style="fill:none;stroke:#000000;stroke-width:0.5;stroke-linecap:butt;stroke-linejoin:miter;stroke-miterlimit:4;stroke-dasharray:none;stroke-opacity:1"
       d="m 10,84.999998 v 4"
       id="path5288"
       inkscape:connector-curvature="0" />
    <path
       style="fill:none;stroke:#000000;stroke-width:0.5;stroke-linecap:butt;stroke-linejoin:miter;stroke-miterlimit:4;stroke-dasharray:none;stroke-opacity:1"
       d="M 12,87 H 7.9999998"
       id="path5290"
       inkscape:connector-curvature="0" />
    <g
       aria-label="0"
       style="font-style:normal;font-variant:normal;font-weight:normal;font-stretch:normal;font-size:3.52777767px;line-height:1.25;font-family:Tahoma;-inkscape-font-specification:Tahoma;letter-spacing:0px;word-spacing:0px;fill:#000000;fill-opacity:1;stroke:none;stroke-width:0.26458332"
       id="text5294">
      <path
         d="m 10.819933,91.99828 q 0,0.690742 -0.201538,1.014581 Q 10.418579,93.334977 10,93.334977 q -0.4237465,0 -0.6218395,-0.329007 -0.198093,-0.329006 -0.198093,-1.004245 0,-0.694187 0.1998155,-1.01458 Q 9.5814211,90.665028 10,90.665028 q 0.423747,0 0.62184,0.332452 0.198093,0.332452 0.198093,1.0008 z m -0.440972,0.782037 q 0.04995,-0.127469 0.07062,-0.322117 0.02067,-0.194648 0.02067,-0.45992 0,-0.26355 -0.02067,-0.458198 -0.02067,-0.194648 -0.07235,-0.323839 -0.05168,-0.130913 -0.142971,-0.198093 -0.08957,-0.0689 -0.234267,-0.0689 -0.1429713,0 -0.2359889,0.0689 -0.091295,0.06718 -0.144694,0.201538 -0.051676,0.130914 -0.070624,0.33073 -0.018948,0.199815 -0.018948,0.451307 0,0.268718 0.015503,0.449585 0.017226,0.180868 0.072347,0.323839 0.049954,0.132636 0.1412489,0.204983 0.093018,0.07063 0.2411565,0.07063 0.1429725,0 0.2342675,-0.06718 0.09302,-0.0689 0.144694,-0.20326 z"
         style="stroke-width:0.26458332"
         id="path5387"
         inkscape:connector-curvature="0" />
    </g>
    <g
       aria-label="0"
       style="font-style:normal;font-variant:normal;font-weight:normal;font-stretch:normal;font-size:3.52777767px;line-height:1.25;font-family:Tahoma;-inkscape-font-specification:Tahoma;letter-spacing:0px;word-spacing:0px;fill:#000000;fill-opacity:1;stroke:none;stroke-width:0.26458332"
       id="text5294-1">
      <path
         d="m 5.8199329,86.99828 q 0,0.690742 -0.2015381,1.014581 -0.1998155,0.322116 -0.6183946,0.322116 -0.4237467,0 -0.6218397,-0.329007 -0.198093,-0.329006 -0.198093,-1.004245 0,-0.694187 0.1998155,-1.01458 0.2015381,-0.322117 0.6201172,-0.322117 0.4237467,0 0.6218397,0.332452 0.198093,0.332452 0.198093,1.0008 z m -0.4409722,0.782037 q 0.049954,-0.127469 0.070624,-0.322117 0.020671,-0.194648 0.020671,-0.45992 0,-0.26355 -0.020671,-0.458198 -0.020671,-0.194648 -0.072347,-0.323839 -0.051676,-0.130913 -0.1429714,-0.198093 -0.089573,-0.0689 -0.2342665,-0.0689 -0.1429715,0 -0.2359891,0.0689 -0.091295,0.06718 -0.144694,0.201538 -0.051676,0.130914 -0.070624,0.33073 -0.018948,0.199815 -0.018948,0.451307 0,0.268718 0.015503,0.449585 0.017226,0.180868 0.072347,0.323839 0.049954,0.132636 0.1412489,0.204983 0.093018,0.07063 0.2411567,0.07063 0.1429714,0 0.2342665,-0.06718 0.093018,-0.0689 0.144694,-0.20326 z"
         style="stroke-width:0.26458332"
         id="path5384"
         inkscape:connector-curvature="0" />
    </g>
    <g
       aria-label="Re z"
       style="font-style:normal;font-variant:normal;font-weight:normal;font-stretch:normal;font-size:3.52777767px;line-height:1.25;font-family:Tahoma;-inkscape-font-specification:Tahoma;letter-spacing:0px;word-spacing:0px;fill:#000000;fill-opacity:1;stroke:none;stroke-width:0.26458332"
       id="text5316">
      <path
         d="m 48.789911,93.26004 h -0.442695 l -0.813042,-1.019748 h -0.389296 v 1.019748 h -0.341064 v -2.564873 h 0.661458 q 0.220486,0 0.368625,0.02412 0.149862,0.02412 0.28422,0.111966 0.134359,0.08613 0.211874,0.222209 0.07924,0.136081 0.07924,0.337619 0,0.282498 -0.142972,0.471978 -0.142971,0.18948 -0.389295,0.280775 z m -0.73725,-1.843126 q 0,-0.111965 -0.03962,-0.198093 Q 47.973421,91.130971 47.89074,91.07585 47.81839,91.02762 47.72193,91.00867 47.625469,90.988 47.482497,90.988 h -0.337619 v 0.968072 h 0.299723 q 0.146417,0 0.26355,-0.02584 0.117133,-0.02584 0.199816,-0.106797 0.07407,-0.07235 0.10852,-0.172255 0.03617,-0.09991 0.03617,-0.234267 z"
         style="stroke-width:0.26458332"
         id="path5377"
         inkscape:connector-curvature="0" />
      <path
         d="m 49.804491,93.304827 q -0.45992,0 -0.714857,-0.258383 -0.253214,-0.260104 -0.253214,-0.73725 0,-0.470256 0.246324,-0.747586 0.246324,-0.279052 0.644233,-0.279052 0.179145,0 0.316949,0.05168 0.137803,0.05168 0.241156,0.161919 0.103353,0.110243 0.158475,0.27044 0.05512,0.158475 0.05512,0.389296 v 0.1757 h -1.333252 q 0,0.335897 0.16881,0.513319 0.16881,0.177423 0.46681,0.177423 0.106798,0 0.208429,-0.02412 0.103353,-0.02412 0.186035,-0.06201 0.08785,-0.03962 0.148139,-0.07579 0.06029,-0.0379 0.09991,-0.07062 h 0.01895 v 0.353122 q -0.05684,0.02239 -0.141249,0.05684 -0.0844,0.03273 -0.151584,0.05168 -0.09474,0.02584 -0.172255,0.03962 -0.07579,0.01378 -0.192926,0.01378 z m 0.378961,-1.221287 q -0.0034,-0.130913 -0.03101,-0.225654 -0.02756,-0.09474 -0.07924,-0.160196 -0.05684,-0.07235 -0.146417,-0.110244 -0.08785,-0.0379 -0.218763,-0.0379 -0.129191,0 -0.220486,0.03962 -0.08957,0.0379 -0.163642,0.111966 -0.07235,0.07579 -0.110243,0.168809 -0.0379,0.0913 -0.04823,0.213596 z"
         style="stroke-width:0.26458332"
         id="path5379"
         inkscape:connector-curvature="0" />
      <path
         d="m 53.196188,93.26004 h -1.414211 v -0.239434 l 1.005967,-1.417657 h -0.964626 v -0.266994 h 1.353922 v 0.230821 L 52.166105,92.9896 h 1.030083 z"
         style="stroke-width:0.26458332"
         id="path5381"
         inkscape:connector-curvature="0" />
    </g>
    <g
       aria-label="Im z"
       transform="rotate(-90)"
       style="font-style:normal;font-variant:normal;font-weight:normal;font-stretch:normal;font-size:3.52777767px;line-height:1.25;font-family:Tahoma;-inkscape-font-specification:Tahoma;letter-spacing:0px;word-spacing:0px;fill:#000000;fill-opacity:1;stroke:none;stroke-width:0.26458332"
       id="text5320">
      <path
         d="M -49.364198,6.2824368 H -50.35983 V 6.0206096 h 0.327284 V 3.9793906 H -50.35983 V 3.7175633 h 0.995632 v 0.2618273 h -0.327284 v 2.041219 h 0.327284 z"
         style="stroke-width:0.26458332"
         id="path5370"
         inkscape:connector-curvature="0" />
      <path
         d="M -46.785544,6.2824368 V 5.169671 q 0,-0.1326361 -0.01033,-0.2446017 -0.01033,-0.1136882 -0.04306,-0.1774224 -0.03445,-0.068902 -0.09819,-0.1016304 -0.06373,-0.032728 -0.172255,-0.032728 -0.09991,0 -0.215318,0.062012 -0.113688,0.060289 -0.235989,0.1756998 0.0017,0.029283 0.0034,0.070625 0.0034,0.039619 0.0034,0.09474 v 1.2660725 h -0.323839 V 5.169671 q 0,-0.1326361 -0.01033,-0.2446017 -0.01034,-0.1136882 -0.04306,-0.1774224 -0.03445,-0.068902 -0.09819,-0.1016304 -0.06373,-0.032728 -0.172255,-0.032728 -0.105075,0 -0.220486,0.065457 -0.115411,0.065457 -0.223931,0.1670872 v 1.4366047 h -0.323839 V 4.3583511 h 0.323839 V 4.571947 q 0.127468,-0.1274685 0.251492,-0.1963704 0.125746,-0.070624 0.275607,-0.070624 0.170533,0 0.301446,0.077515 0.132636,0.077515 0.201538,0.2549371 0.146417,-0.163642 0.285943,-0.2480469 0.139527,-0.084405 0.303169,-0.084405 0.124023,0 0.225653,0.039619 0.101631,0.037896 0.177423,0.1240234 0.07751,0.08785 0.118856,0.2187636 0.04306,0.1309136 0.04306,0.3290066 v 1.2660725 z"
         style="stroke-width:0.26458332"
         id="path5372"
         inkscape:connector-curvature="0" />
      <path
         d="m -43.640172,6.2824368 h -1.414211 V 6.0430027 l 1.005967,-1.4176567 h -0.964626 V 4.3583511 h 1.353922 v 0.2308214 l -1.011135,1.4228244 h 1.030083 z"
         style="stroke-width:0.26458332"
         id="path5374"
         inkscape:connector-curvature="0" />
    </g>
    <g
       aria-label="∞"
       style="font-style:normal;font-variant:normal;font-weight:normal;font-stretch:normal;font-size:3.52777767px;line-height:1.25;font-family:Tahoma;-inkscape-font-specification:Tahoma;letter-spacing:0px;word-spacing:0px;fill:#000000;fill-opacity:1;stroke:none;stroke-width:0.26458332"
       id="text5324">
      <path
         d="m 91.414212,91.981913 q 0,0.394464 -0.19637,0.633898 -0.194648,0.237711 -0.544325,0.237711 -0.218764,0 -0.403076,-0.137803 -0.184313,-0.139527 -0.289388,-0.377238 -0.132636,0.263549 -0.304891,0.389295 -0.170532,0.125746 -0.406521,0.125746 -0.313504,0 -0.499539,-0.235989 -0.184313,-0.235989 -0.184313,-0.599446 0,-0.406521 0.201538,-0.639065 0.203261,-0.232544 0.539158,-0.232544 0.218763,0 0.403076,0.139526 0.184312,0.137804 0.289388,0.375515 0.129191,-0.258382 0.304891,-0.38585 0.1757,-0.129191 0.406521,-0.129191 0.313504,0 0.497816,0.235989 0.186035,0.235989 0.186035,0.599446 z m -1.514119,-0.113688 q -0.103353,-0.201538 -0.249769,-0.301446 -0.144694,-0.10163 -0.299724,-0.10163 -0.225653,0 -0.349677,0.141249 -0.122301,0.141249 -0.122301,0.411689 0,0.244602 0.106798,0.380683 0.108521,0.134359 0.289388,0.134359 0.146417,0 0.246325,-0.06374 0.09991,-0.06546 0.213595,-0.265272 0.04306,-0.07579 0.0844,-0.158474 0.04306,-0.08268 0.08096,-0.177423 z m 1.221286,0.113688 q 0,-0.248047 -0.10852,-0.380683 -0.108521,-0.134358 -0.287666,-0.134358 -0.151584,0 -0.249769,0.06718 -0.09819,0.06718 -0.211873,0.261827 -0.05684,0.09474 -0.0913,0.16881 -0.03273,0.07235 -0.07235,0.167087 0.09991,0.199815 0.246324,0.301446 0.148139,0.10163 0.303168,0.10163 0.225654,0 0.347955,-0.139526 0.124023,-0.141249 0.124023,-0.413412 z"
         style="stroke-width:0.26458332"
         id="path5367"
         inkscape:connector-curvature="0" />
    </g>
    <g
       aria-label="∞"
       style="font-style:normal;font-variant:normal;font-weight:normal;font-stretch:normal;font-size:3.52777767px;line-height:1.25;font-family:Tahoma;-inkscape-font-specification:Tahoma;letter-spacing:0px;word-spacing:0px;fill:#000000;fill-opacity:1;stroke:none;stroke-width:0.26458332"
       id="text5324-4">
      <path
         d="m 6.4142117,6.9819133 q 0,0.3944634 -0.1963704,0.6338975 -0.1946479,0.2377116 -0.5443251,0.2377116 -0.2187635,0 -0.4030761,-0.1378038 -0.1843126,-0.1395264 -0.289388,-0.3772379 -0.1326362,0.2635498 -0.304891,0.3892957 -0.1705322,0.125746 -0.4065212,0.125746 -0.3135037,0 -0.4995389,-0.235989 -0.1843126,-0.2359891 -0.1843126,-0.5994466 0,-0.4065213 0.2015381,-0.6390652 0.2032606,-0.2325439 0.5391574,-0.2325439 0.2187636,0 0.4030762,0.1395263 0.1843126,0.1378038 0.289388,0.3755154 0.1291911,-0.2583821 0.304891,-0.3858507 0.1756998,-0.129191 0.4065212,-0.129191 0.3135037,0 0.4978163,0.235989 0.1860351,0.235989 0.1860351,0.5994466 z M 4.9000923,6.8682251 Q 4.7967395,6.6666871 4.6503229,6.5667793 4.5056289,6.465149 4.3505996,6.465149 q -0.2256537,0 -0.3496772,0.1412489 -0.1223009,0.1412489 -0.1223009,0.4116889 0,0.2446018 0.106798,0.380683 0.1085205,0.1343587 0.289388,0.1343587 0.1464166,0 0.2463243,-0.063734 0.099908,-0.065457 0.2135959,-0.2652724 0.043064,-0.075792 0.084405,-0.1584744 0.043064,-0.082682 0.08096,-0.1774226 z m 1.2212863,0.1136882 q 0,-0.2480469 -0.1085205,-0.3806831 -0.1085205,-0.1343587 -0.2876654,-0.1343587 -0.1515842,0 -0.2497695,0.067179 -0.098185,0.067179 -0.2118733,0.2618272 -0.056844,0.09474 -0.091295,0.1688097 -0.032729,0.072347 -0.072347,0.1670871 0.099908,0.1998156 0.2463243,0.3014459 0.1481391,0.1016303 0.3031684,0.1016303 0.2256537,0 0.3479546,-0.1395264 0.1240234,-0.1412489 0.1240234,-0.413411 z"
         style="stroke-width:0.26458332"
         id="path5364"
         inkscape:connector-curvature="0" />
    </g>
    <path
       style="fill:none;stroke:#000000;stroke-width:0.26499999;stroke-linecap:butt;stroke-linejoin:miter;stroke-opacity:1;stroke-miterlimit:4;stroke-dasharray:0.79499996,0.79499996;stroke-dashoffset:0"
       d="M 39.999998,7.0000184 C 40.40536,18.839342 38.704157,30.747767 35.000001,42.000017 30.769952,54.849791 23.923011,66.831937 15,77.000018"
       id="path9414"
       inkscape:connector-curvature="0"
       inkscape:path-effect="#path-effect9416"
       inkscape:original-d="M 39.999998,7.0000184 C 38.333597,18.66642 36.666931,30.333088 35.000001,42.000017 33.333067,53.666949 21.666931,65.333086 15,77.000018" />
    <path
       transform="matrix(0,-1,-1,0,97.000018,97.000019)"
       style="fill:none;stroke:#000000;stroke-width:0.26499999;stroke-linecap:butt;stroke-linejoin:miter;stroke-miterlimit:4;stroke-dasharray:0.79499996, 0.79499996;stroke-dashoffset:0;stroke-opacity:1"
       d="M 39.999998,7.0000184 C 40.40536,18.839342 38.704157,30.747767 35.000001,42.000017 30.769952,54.849791 23.923011,66.831937 15,77.000018"
       id="path9414-5"
       inkscape:connector-curvature="0"
       inkscape:path-effect="#path-effect9416-7"
       inkscape:original-d="M 39.999998,7.0000184 C 38.333597,18.66642 36.666931,30.333088 35.000001,42.000017 33.333067,53.666949 21.666931,65.333086 15,77.000018" />
    <path
       style="fill:#0000ff;stroke:none;stroke-width:1.00157475;stroke-linecap:butt;stroke-linejoin:miter;stroke-miterlimit:4;stroke-dasharray:3.00472426, 3.00472426000000015;stroke-dashoffset:0;stroke-opacity:1;fill-opacity:0.36078432"
       d="M 43.140625 40.652344 L 43.140625 324.11719 L 62.037109 305.21875 C 95.761876 266.78821 121.64132 221.50162 137.62891 172.93555 C 151.62887 130.40736 158.05747 85.399392 156.52539 40.652344 L 43.140625 40.652344 z "
       transform="matrix(0.26458333,0,0,0.26458333,-1.4142116,-3.7559181)"
       id="path9414-1" />
    <path
       inkscape:connector-curvature="0"
       style="fill:#00ff00;fill-opacity:0.36078431;stroke:none;stroke-width:0.26499999;stroke-linecap:butt;stroke-linejoin:miter;stroke-miterlimit:4;stroke-dasharray:0.79499996, 0.79499995999999984;stroke-dashoffset:0;stroke-opacity:1"
       d="M 89.999863,86.999713 H 14.999786 L 20,82.000019 C 30.168081,73.077008 42.150158,66.229738 54.99993,61.999688 66.252182,58.295531 78.16054,56.59463 89.999863,56.999993 Z"
       id="path9414-1-9" />
    <g
       aria-label="Damped Oscillation"
       transform="rotate(-90)"
       style="font-style:normal;font-variant:normal;font-weight:normal;font-stretch:normal;font-size:3.52777767px;line-height:1.25;font-family:Tahoma;-inkscape-font-specification:Tahoma;letter-spacing:0px;word-spacing:0px;fill:#000000;fill-opacity:1;stroke:none;stroke-width:0.26458332"
       id="text9408">
      <path
         d="m -39.690887,19.705445 q 0,0.3514 -0.142972,0.633898 -0.141248,0.282498 -0.380683,0.440972 -0.194647,0.122301 -0.396186,0.163642 -0.199815,0.04134 -0.511596,0.04134 h -0.590834 v -2.564873 h 0.583944 q 0.361735,0 0.566718,0.05512 0.206705,0.0534 0.3514,0.148139 0.248046,0.163642 0.384128,0.435805 0.136081,0.27044 0.136081,0.645955 z m -0.354845,-0.0052 q 0,-0.296279 -0.09819,-0.504707 -0.09819,-0.210151 -0.291111,-0.327284 -0.136081,-0.08268 -0.29111,-0.118856 -0.15503,-0.03617 -0.385851,-0.03617 h -0.260105 v 1.979207 h 0.260105 q 0.227376,0 0.397909,-0.03617 0.170532,-0.03617 0.311781,-0.134359 0.177422,-0.120579 0.266995,-0.320394 0.08957,-0.201538 0.08957,-0.501261 z"
         style="stroke-width:0.26458332"
         id="path23086" />
      <path
         d="m -38.27323,20.511598 v -0.53399 q -0.115411,0.01034 -0.292834,0.02928 -0.175699,0.01723 -0.28422,0.04995 -0.129191,0.03962 -0.213596,0.122301 -0.08441,0.08096 -0.08441,0.227376 0,0.165365 0.09302,0.24977 0.09302,0.0844 0.272162,0.0844 0.153307,0 0.277331,-0.06546 0.124023,-0.06718 0.232544,-0.163642 z m 0,0.268717 q -0.03962,0.02928 -0.106798,0.08268 -0.06546,0.05168 -0.127469,0.08268 -0.08613,0.04479 -0.167087,0.0689 -0.07924,0.02412 -0.223931,0.02412 -0.118856,0 -0.225654,-0.04479 -0.106798,-0.04479 -0.187758,-0.125746 -0.07751,-0.07924 -0.124023,-0.194648 -0.04651,-0.117133 -0.04651,-0.246324 0,-0.199816 0.0844,-0.339342 0.08441,-0.141249 0.266995,-0.223931 0.161919,-0.07407 0.382405,-0.101631 0.220486,-0.02928 0.475424,-0.04306 v -0.06201 q 0,-0.113688 -0.03445,-0.18259 -0.03445,-0.07062 -0.09646,-0.108521 -0.06201,-0.03962 -0.151584,-0.05168 -0.08957,-0.01378 -0.184313,-0.01378 -0.111965,0 -0.26355,0.03445 -0.151584,0.03273 -0.303168,0.09646 h -0.01895 v -0.329006 q 0.08957,-0.02584 0.25666,-0.05685 0.167087,-0.03101 0.330729,-0.03101 0.198093,0 0.334174,0.03101 0.136081,0.03101 0.244602,0.111966 0.105075,0.07924 0.156752,0.204983 0.05168,0.125746 0.05168,0.306614 v 1.316026 h -0.322116 z"
         style="stroke-width:0.26458332"
         id="path23088" />
      <path
         d="m -35.310449,20.985298 v -1.112766 q 0,-0.132636 -0.01034,-0.244601 -0.01033,-0.113689 -0.04306,-0.177423 -0.03445,-0.0689 -0.09819,-0.10163 -0.06373,-0.03273 -0.172255,-0.03273 -0.09991,0 -0.215318,0.06201 -0.113688,0.06029 -0.235989,0.1757 0.0017,0.02928 0.0034,0.07062 0.0034,0.03962 0.0034,0.09474 v 1.266072 h -0.323839 v -1.112766 q 0,-0.132636 -0.01033,-0.244601 -0.01034,-0.113689 -0.04306,-0.177423 -0.03445,-0.0689 -0.09819,-0.10163 -0.06373,-0.03273 -0.172255,-0.03273 -0.105075,0 -0.220486,0.06546 -0.115411,0.06546 -0.223931,0.167087 v 1.436605 h -0.323839 v -1.924086 h 0.323839 v 0.213596 q 0.127468,-0.127468 0.251492,-0.19637 0.125746,-0.07062 0.275607,-0.07062 0.170533,0 0.301446,0.07752 0.132636,0.07751 0.201538,0.254937 0.146417,-0.163642 0.285943,-0.248047 0.139527,-0.08441 0.303169,-0.08441 0.124023,0 0.225653,0.03962 0.101631,0.0379 0.177423,0.124023 0.07751,0.08785 0.118856,0.218764 0.04306,0.130914 0.04306,0.329007 v 1.266072 z"
         style="stroke-width:0.26458332"
         id="path23090" />
      <path
         d="m -32.91783,19.97244 q 0,0.480591 -0.230821,0.766534 -0.229099,0.28422 -0.580499,0.28422 -0.142971,0 -0.253214,-0.03273 -0.110243,-0.03273 -0.225654,-0.101631 v 0.806153 h -0.323839 v -2.633776 h 0.323839 v 0.201538 q 0.120578,-0.10852 0.266995,-0.180867 0.148139,-0.07407 0.322116,-0.07407 0.33073,0 0.515042,0.261828 0.186035,0.261827 0.186035,0.702799 z m -0.334174,0.03617 q 0,-0.329007 -0.105075,-0.509875 -0.105076,-0.18259 -0.341065,-0.18259 -0.137804,0 -0.266995,0.06201 -0.127468,0.06029 -0.242879,0.156752 v 1.090373 q 0.127469,0.06201 0.217041,0.08441 0.0913,0.02239 0.208428,0.02239 0.251492,0 0.391019,-0.184313 0.139526,-0.184313 0.139526,-0.539157 z"
         style="stroke-width:0.26458332"
         id="path23092" />
      <path
         d="m -31.746497,21.030084 q -0.45992,0 -0.714857,-0.258382 -0.253215,-0.260104 -0.253215,-0.73725 0,-0.470256 0.246324,-0.747586 0.246325,-0.279053 0.644233,-0.279053 0.179145,0 0.316949,0.05168 0.137804,0.05168 0.241157,0.161919 0.103352,0.110243 0.158474,0.27044 0.05512,0.158475 0.05512,0.389296 v 0.1757 h -1.333252 q 0,0.335897 0.168809,0.513319 0.16881,0.177423 0.466811,0.177423 0.106798,0 0.208428,-0.02412 0.103353,-0.02412 0.186035,-0.06201 0.08785,-0.03962 0.148139,-0.07579 0.06029,-0.0379 0.09991,-0.07062 h 0.01895 v 0.353122 q -0.05684,0.02239 -0.141249,0.05684 -0.08441,0.03273 -0.151584,0.05168 -0.09474,0.02584 -0.172255,0.03962 -0.07579,0.01378 -0.192925,0.01378 z m 0.37896,-1.221286 q -0.0034,-0.130914 -0.03101,-0.225654 -0.02756,-0.09474 -0.07924,-0.160197 -0.05684,-0.07235 -0.146416,-0.110243 -0.08785,-0.0379 -0.218764,-0.0379 -0.129191,0 -0.220486,0.03962 -0.08957,0.0379 -0.163642,0.111965 -0.07235,0.07579 -0.110243,0.16881 -0.0379,0.09129 -0.04823,0.213596 z"
         style="stroke-width:0.26458332"
         id="path23094" />
      <path
         d="m -29.24019,20.985298 h -0.323839 v -0.19637 q -0.07579,0.06373 -0.130914,0.105075 -0.05512,0.04134 -0.129191,0.07579 -0.0689,0.03273 -0.142971,0.04995 -0.07407,0.01895 -0.172255,0.01895 -0.156752,0 -0.291111,-0.06546 -0.132636,-0.06546 -0.225653,-0.191202 -0.09474,-0.127469 -0.146417,-0.313504 -0.05168,-0.187758 -0.05168,-0.430637 0,-0.253215 0.06546,-0.437527 0.06546,-0.186035 0.180868,-0.323839 0.105075,-0.125746 0.253214,-0.196371 0.149862,-0.07235 0.313504,-0.07235 0.144694,0 0.251492,0.03273 0.106798,0.03101 0.225654,0.09819 v -0.833713 h 0.323839 z m -0.323839,-0.468533 v -1.109321 q -0.120579,-0.05857 -0.217041,-0.08096 -0.09474,-0.02239 -0.206706,-0.02239 -0.249769,0 -0.391018,0.187757 -0.141249,0.186035 -0.141249,0.539158 0,0.339342 0.10852,0.520209 0.108521,0.179145 0.347955,0.179145 0.127468,0 0.25666,-0.05684 0.129191,-0.05857 0.242879,-0.156752 z"
         style="stroke-width:0.26458332"
         id="path23096" />
      <path
         d="m -25.829546,18.71498 q 0.146417,0.16881 0.227377,0.418579 0.08096,0.24977 0.08096,0.570164 0,0.311781 -0.07924,0.563273 -0.07924,0.251492 -0.229099,0.422024 -0.156751,0.179145 -0.366902,0.265272 -0.208428,0.08441 -0.45992,0.08441 -0.260105,0 -0.468533,-0.08785 -0.208429,-0.08785 -0.35829,-0.261827 -0.148139,-0.170532 -0.227377,-0.420302 -0.07924,-0.249769 -0.07924,-0.564995 0,-0.323839 0.07924,-0.568441 0.08096,-0.244602 0.229099,-0.420302 0.148139,-0.170532 0.356568,-0.258382 0.21015,-0.08957 0.468533,-0.08957 0.261827,0 0.471978,0.0913 0.21015,0.09129 0.354844,0.256659 z m -0.04651,0.988743 q 0,-0.254937 -0.05512,-0.451308 -0.05512,-0.19637 -0.155029,-0.325561 -0.10163,-0.132637 -0.246324,-0.198093 -0.142972,-0.06718 -0.322117,-0.06718 -0.186035,0 -0.325561,0.06546 -0.137804,0.06373 -0.244602,0.199816 -0.10163,0.130913 -0.156752,0.329006 -0.0534,0.198093 -0.0534,0.447863 0,0.504706 0.211873,0.773424 0.211874,0.266994 0.568441,0.266994 0.356568,0 0.566718,-0.266994 0.211874,-0.268718 0.211874,-0.773424 z"
         style="stroke-width:0.26458332"
         id="path23098" />
      <path
         d="m -24.654769,21.031807 q -0.192925,0 -0.361735,-0.05168 -0.167087,-0.05168 -0.27733,-0.110244 V 20.50643 h 0.01723 q 0.04134,0.03273 0.09646,0.07235 0.05684,0.03962 0.149862,0.08268 0.08268,0.0379 0.180867,0.06718 0.09991,0.02928 0.206706,0.02928 0.07751,0 0.165365,-0.01723 0.08785,-0.01895 0.130913,-0.04651 0.06029,-0.03962 0.08613,-0.08441 0.02756,-0.04479 0.02756,-0.134359 0,-0.115411 -0.06374,-0.173977 -0.06201,-0.05857 -0.222208,-0.09819 -0.06201,-0.0155 -0.16192,-0.03617 -0.09991,-0.02067 -0.184312,-0.04479 -0.220487,-0.06374 -0.320394,-0.196371 -0.09991,-0.134358 -0.09991,-0.323839 0,-0.260104 0.19637,-0.423746 0.196371,-0.163642 0.521932,-0.163642 0.160197,0 0.322117,0.03962 0.161919,0.03962 0.272162,0.09991 v 0.346232 h -0.01723 q -0.124024,-0.09818 -0.27733,-0.155029 -0.151585,-0.05684 -0.306614,-0.05684 -0.160197,0 -0.27044,0.06718 -0.110243,0.06718 -0.110243,0.203261 0,0.120578 0.06546,0.180867 0.06546,0.05857 0.210151,0.09646 0.07235,0.01895 0.160197,0.0379 0.08957,0.01722 0.187757,0.04134 0.213596,0.0534 0.320394,0.177422 0.108521,0.124024 0.108521,0.33762 0,0.124023 -0.04995,0.235989 -0.04823,0.110243 -0.142972,0.18948 -0.103353,0.08613 -0.234266,0.130914 -0.129191,0.04479 -0.325562,0.04479 z"
         style="stroke-width:0.26458332"
         id="path23100" />
      <path
         d="m -22.832313,21.028362 q -0.198093,0 -0.363457,-0.06029 -0.165365,-0.06201 -0.284221,-0.186035 -0.118855,-0.124024 -0.184312,-0.311782 -0.06546,-0.18948 -0.06546,-0.444417 0,-0.253214 0.06718,-0.437527 0.0689,-0.184313 0.18259,-0.310059 0.113688,-0.125746 0.282498,-0.192925 0.170532,-0.0689 0.36518,-0.0689 0.158475,0 0.304891,0.04479 0.148139,0.04479 0.26355,0.103353 v 0.363458 h -0.01895 q -0.03445,-0.02928 -0.08957,-0.06718 -0.0534,-0.0379 -0.130914,-0.07751 -0.06718,-0.03445 -0.158474,-0.06029 -0.0913,-0.02584 -0.1757,-0.02584 -0.251492,0 -0.404799,0.191203 -0.151584,0.18948 -0.151584,0.537435 0,0.341065 0.146416,0.532267 0.148139,0.189481 0.409967,0.189481 0.158474,0 0.301445,-0.06546 0.142972,-0.06546 0.253215,-0.16881 h 0.01895 v 0.363458 q -0.04823,0.02239 -0.120578,0.05512 -0.07235,0.03101 -0.130914,0.04651 -0.08268,0.02412 -0.148139,0.03617 -0.06546,0.01378 -0.16881,0.01378 z"
         style="stroke-width:0.26458332"
         id="path23102" />
      <path
         d="m -21.640309,20.985298 h -0.323839 v -1.924086 h 0.323839 z m 0.02239,-2.246202 h -0.368626 v -0.335897 h 0.368626 z"
         style="stroke-width:0.26458332"
         id="path23104" />
      <path
         d="m -20.834157,20.985298 h -0.323839 v -2.680284 h 0.323839 z"
         style="stroke-width:0.26458332"
         id="path23106" />
      <path
         d="m -20.028005,20.985298 h -0.323839 v -2.680284 h 0.323839 z"
         style="stroke-width:0.26458332"
         id="path23108" />
      <path
         d="m -18.477712,20.511598 v -0.53399 q -0.115411,0.01034 -0.292833,0.02928 -0.1757,0.01723 -0.28422,0.04995 -0.129191,0.03962 -0.213596,0.122301 -0.08441,0.08096 -0.08441,0.227376 0,0.165365 0.09302,0.24977 0.09302,0.0844 0.272162,0.0844 0.153307,0 0.27733,-0.06546 0.124024,-0.06718 0.232544,-0.163642 z m 0,0.268717 q -0.03962,0.02928 -0.106798,0.08268 -0.06546,0.05168 -0.127468,0.08268 -0.08613,0.04479 -0.167087,0.0689 -0.07924,0.02412 -0.223932,0.02412 -0.118855,0 -0.225653,-0.04479 -0.106798,-0.04479 -0.187758,-0.125746 -0.07752,-0.07924 -0.124024,-0.194648 -0.04651,-0.117133 -0.04651,-0.246324 0,-0.199816 0.08441,-0.339342 0.0844,-0.141249 0.266994,-0.223931 0.16192,-0.07407 0.382406,-0.101631 0.220486,-0.02928 0.475423,-0.04306 v -0.06201 q 0,-0.113688 -0.03445,-0.18259 -0.03445,-0.07062 -0.09646,-0.108521 -0.06201,-0.03962 -0.151585,-0.05168 -0.08957,-0.01378 -0.184312,-0.01378 -0.111966,0 -0.26355,0.03445 -0.151584,0.03273 -0.303168,0.09646 h -0.01895 v -0.329006 q 0.08957,-0.02584 0.256659,-0.05685 0.167087,-0.03101 0.330729,-0.03101 0.198093,0 0.334175,0.03101 0.136081,0.03101 0.244601,0.111966 0.105076,0.07924 0.156752,0.204983 0.05168,0.125746 0.05168,0.306614 v 1.316026 h -0.322117 z"
         style="stroke-width:0.26458332"
         id="path23110" />
      <path
         d="m -17.1169,21.023194 q -0.265272,0 -0.413412,-0.149861 -0.148139,-0.151585 -0.148139,-0.477146 V 19.32993 h -0.218763 v -0.268718 h 0.218763 v -0.552937 h 0.323839 v 0.552937 h 0.596002 v 0.268718 h -0.596002 v 0.914673 q 0,0.146416 0.0052,0.225653 0.0052,0.07924 0.03962,0.148139 0.02928,0.06029 0.09474,0.0913 0.06546,0.02928 0.177422,0.02928 0.07924,0 0.153307,-0.02239 0.07407,-0.02412 0.106798,-0.03962 h 0.01895 v 0.291111 q -0.09129,0.02584 -0.186035,0.03962 -0.09302,0.0155 -0.172255,0.0155 z"
         style="stroke-width:0.26458332"
         id="path23112" />
      <path
         d="m -16.190169,20.985298 h -0.323839 v -1.924086 h 0.323839 z m 0.02239,-2.246202 h -0.368626 v -0.335897 h 0.368626 z"
         style="stroke-width:0.26458332"
         id="path23114" />
      <path
         d="m -14.131725,20.024117 q 0,0.485758 -0.234266,0.75103 -0.234267,0.26355 -0.623563,0.26355 -0.401353,0 -0.632175,-0.272162 -0.229099,-0.273885 -0.229099,-0.742418 0,-0.482314 0.235989,-0.749309 0.237712,-0.266995 0.625285,-0.266995 0.389296,0 0.623563,0.266995 0.234266,0.265273 0.234266,0.749309 z m -0.334174,0 q 0,-0.373793 -0.136081,-0.554661 -0.136082,-0.18259 -0.387574,-0.18259 -0.253214,0 -0.391018,0.18259 -0.136081,0.180868 -0.136081,0.554661 0,0.361735 0.136081,0.549492 0.137804,0.186035 0.391018,0.186035 0.24977,0 0.385851,-0.18259 0.137804,-0.184312 0.137804,-0.552937 z"
         style="stroke-width:0.26458332"
         id="path23116" />
      <path
         d="m -12.286875,20.985298 h -0.323839 v -1.09554 q 0,-0.132636 -0.01378,-0.246324 -0.01206,-0.115411 -0.04823,-0.184313 -0.03962,-0.07235 -0.110243,-0.106798 -0.07062,-0.03617 -0.192926,-0.03617 -0.120578,0 -0.249769,0.06546 -0.127468,0.06373 -0.249769,0.167087 v 1.436605 h -0.323839 v -1.924086 h 0.323839 v 0.213596 q 0.144694,-0.129191 0.285943,-0.198093 0.141248,-0.0689 0.298,-0.0689 0.284221,0 0.444418,0.187758 0.160197,0.186035 0.160197,0.54088 z"
         style="stroke-width:0.26458332"
         id="path23118" />
    </g>
    <g
       aria-label="Attenuation"
       style="font-style:normal;font-variant:normal;font-weight:normal;font-stretch:normal;font-size:3.52777767px;line-height:1.25;font-family:Tahoma;-inkscape-font-specification:Tahoma;letter-spacing:0px;word-spacing:0px;fill:#000000;fill-opacity:1;stroke:none;stroke-width:0.26458332"
       id="text9412">
      <path
         d="m 66.222757,77.92675 0.864719,-2.564873 h 0.420302 l 0.864719,2.564873 H 68.012484 L 67.77994,77.21017 h -0.980129 l -0.232544,0.71658 z M 67.6852,76.91906 67.289014,75.709831 66.894551,76.91906 Z"
         style="stroke-width:0.26458332"
         id="path23063" />
      <path
         d="m 69.171759,77.964646 q -0.265273,0 -0.413412,-0.149861 -0.148139,-0.151585 -0.148139,-0.477146 v -1.066257 h -0.218763 v -0.268718 h 0.218763 v -0.552937 h 0.323839 v 0.552937 h 0.596002 v 0.268718 h -0.596002 v 0.914673 q 0,0.146416 0.0052,0.225653 0.0052,0.07924 0.03962,0.14814 0.02928,0.06029 0.09474,0.0913 0.06546,0.02928 0.177423,0.02928 0.07924,0 0.153307,-0.02239 0.07407,-0.02412 0.106798,-0.03962 h 0.01895 v 0.291111 q -0.0913,0.02584 -0.186036,0.03962 -0.09302,0.0155 -0.172254,0.0155 z"
         style="stroke-width:0.26458332"
         id="path23065" />
      <path
         d="m 70.349981,77.964646 q -0.265272,0 -0.413411,-0.149861 -0.148139,-0.151585 -0.148139,-0.477146 v -1.066257 h -0.218764 v -0.268718 h 0.218764 v -0.552937 h 0.323839 v 0.552937 h 0.596001 v 0.268718 H 70.11227 v 0.914673 q 0,0.146416 0.0052,0.225653 0.0052,0.07924 0.03962,0.14814 0.02928,0.06029 0.09474,0.0913 0.06546,0.02928 0.177423,0.02928 0.07924,0 0.153306,-0.02239 0.07407,-0.02412 0.106798,-0.03962 h 0.01895 v 0.291111 q -0.0913,0.02584 -0.186035,0.03962 -0.09302,0.0155 -0.172255,0.0155 z"
         style="stroke-width:0.26458332"
         id="path23067" />
      <path
         d="m 71.781419,77.971536 q -0.45992,0 -0.714858,-0.258382 -0.253214,-0.260104 -0.253214,-0.73725 0,-0.470256 0.246324,-0.747586 0.246325,-0.279053 0.644233,-0.279053 0.179145,0 0.316949,0.05168 0.137804,0.05168 0.241157,0.161919 0.103352,0.110243 0.158474,0.27044 0.05512,0.158475 0.05512,0.389296 v 0.1757 h -1.333251 q 0,0.335897 0.168809,0.513319 0.16881,0.177423 0.466811,0.177423 0.106798,0 0.208428,-0.02412 0.103353,-0.02412 0.186035,-0.06201 0.08785,-0.03962 0.148139,-0.07579 0.06029,-0.0379 0.09991,-0.07062 h 0.01895 v 0.353122 q -0.05684,0.02239 -0.141249,0.05684 -0.0844,0.03273 -0.151584,0.05168 -0.09474,0.02584 -0.172255,0.03962 -0.07579,0.01378 -0.192925,0.01378 z m 0.37896,-1.221286 q -0.0034,-0.130914 -0.03101,-0.225654 -0.02756,-0.09474 -0.07924,-0.160197 -0.05684,-0.07235 -0.146416,-0.110243 -0.08785,-0.0379 -0.218764,-0.0379 -0.129191,0 -0.220486,0.03962 -0.08957,0.0379 -0.163642,0.111966 -0.07235,0.07579 -0.110243,0.168809 -0.0379,0.0913 -0.04823,0.213596 z"
         style="stroke-width:0.26458332"
         id="path23069" />
      <path
         d="m 74.318732,77.92675 h -0.323839 v -1.09554 q 0,-0.132636 -0.01378,-0.246324 -0.01206,-0.115411 -0.04823,-0.184313 -0.03962,-0.07235 -0.110243,-0.106798 -0.07062,-0.03617 -0.192926,-0.03617 -0.120578,0 -0.249769,0.06546 -0.127468,0.06373 -0.249769,0.167087 v 1.436605 h -0.323839 v -1.924086 h 0.323839 v 0.213596 q 0.144694,-0.129191 0.285943,-0.198093 0.141248,-0.0689 0.298,-0.0689 0.284221,0 0.444418,0.187758 0.160197,0.186035 0.160197,0.54088 z"
         style="stroke-width:0.26458332"
         id="path23071" />
      <path
         d="m 76.275546,77.92675 h -0.323839 v -0.213596 q -0.149862,0.130914 -0.284221,0.199816 -0.134358,0.06718 -0.299723,0.06718 -0.125746,0 -0.237712,-0.04134 -0.110243,-0.04134 -0.192925,-0.130914 -0.08268,-0.08957 -0.129191,-0.225653 -0.04479,-0.136082 -0.04479,-0.33073 v -1.248847 h 0.323839 v 1.095541 q 0,0.153306 0.01033,0.254937 0.01206,0.09991 0.05168,0.1757 0.03962,0.07407 0.106798,0.10852 0.0689,0.03445 0.196371,0.03445 0.118856,0 0.253214,-0.06718 0.134359,-0.06718 0.246325,-0.165365 v -1.436605 h 0.323839 z"
         style="stroke-width:0.26458332"
         id="path23073" />
      <path
         d="m 77.822393,77.45305 v -0.53399 q -0.11541,0.01033 -0.292833,0.02928 -0.1757,0.01723 -0.28422,0.04995 -0.129191,0.03962 -0.213596,0.122301 -0.08441,0.08096 -0.08441,0.227376 0,0.165365 0.09302,0.24977 0.09302,0.0844 0.272162,0.0844 0.153307,0 0.27733,-0.06546 0.124024,-0.06718 0.232544,-0.163642 z m 0,0.268717 q -0.03962,0.02928 -0.106798,0.08268 -0.06546,0.05168 -0.127468,0.08268 -0.08613,0.04479 -0.167087,0.0689 -0.07924,0.02412 -0.223932,0.02412 -0.118855,0 -0.225653,-0.04479 -0.106798,-0.04479 -0.187758,-0.125746 -0.07752,-0.07924 -0.124023,-0.194648 -0.04651,-0.117133 -0.04651,-0.246324 0,-0.199816 0.08441,-0.339342 0.0844,-0.141249 0.266995,-0.223931 0.161919,-0.07407 0.382405,-0.101631 0.220486,-0.02928 0.475423,-0.04306 v -0.06201 q 0,-0.113688 -0.03445,-0.18259 -0.03445,-0.07063 -0.09646,-0.108521 -0.06201,-0.03962 -0.151585,-0.05168 -0.08957,-0.01378 -0.184312,-0.01378 -0.111966,0 -0.26355,0.03445 -0.151584,0.03273 -0.303168,0.09646 h -0.01895 v -0.329006 q 0.08957,-0.02584 0.256659,-0.05684 0.167087,-0.03101 0.330729,-0.03101 0.198093,0 0.334175,0.03101 0.136081,0.03101 0.244601,0.111966 0.105076,0.07924 0.156752,0.204983 0.05168,0.125746 0.05168,0.306614 v 1.316026 h -0.322117 z"
         style="stroke-width:0.26458332"
         id="path23075" />
      <path
         d="m 79.183206,77.964646 q -0.265272,0 -0.413412,-0.149861 -0.148139,-0.151585 -0.148139,-0.477146 v -1.066257 h -0.218763 v -0.268718 h 0.218763 v -0.552937 h 0.323839 v 0.552937 h 0.596002 v 0.268718 h -0.596002 v 0.914673 q 0,0.146416 0.0052,0.225653 0.0052,0.07924 0.03962,0.14814 0.02928,0.06029 0.09474,0.0913 0.06546,0.02928 0.177422,0.02928 0.07924,0 0.153307,-0.02239 0.07407,-0.02412 0.106798,-0.03962 h 0.01895 v 0.291111 q -0.09129,0.02584 -0.186035,0.03962 -0.09302,0.0155 -0.172255,0.0155 z"
         style="stroke-width:0.26458332"
         id="path23077" />
      <path
         d="m 80.109937,77.92675 h -0.323839 v -1.924086 h 0.323839 z m 0.02239,-2.246202 h -0.368625 v -0.335897 h 0.368625 z"
         style="stroke-width:0.26458332"
         id="path23079" />
      <path
         d="m 82.168381,76.965569 q 0,0.485758 -0.234266,0.75103 -0.234267,0.26355 -0.623563,0.26355 -0.401353,0 -0.632175,-0.272162 -0.229098,-0.273885 -0.229098,-0.742418 0,-0.482314 0.235989,-0.749309 0.237711,-0.266995 0.625284,-0.266995 0.389296,0 0.623563,0.266995 0.234266,0.265273 0.234266,0.749309 z m -0.334174,0 q 0,-0.373793 -0.136081,-0.554661 -0.136082,-0.18259 -0.387574,-0.18259 -0.253214,0 -0.391018,0.18259 -0.136081,0.180868 -0.136081,0.554661 0,0.361735 0.136081,0.549492 0.137804,0.186035 0.391018,0.186035 0.24977,0 0.385851,-0.18259 0.137804,-0.184312 0.137804,-0.552937 z"
         style="stroke-width:0.26458332"
         id="path23081" />
      <path
         d="m 84.013231,77.92675 h -0.323839 v -1.09554 q 0,-0.132636 -0.01378,-0.246324 -0.01206,-0.115411 -0.04823,-0.184313 -0.03962,-0.07235 -0.110243,-0.106798 -0.07063,-0.03617 -0.192925,-0.03617 -0.120579,0 -0.24977,0.06546 -0.127468,0.06373 -0.249769,0.167087 v 1.436605 h -0.323839 v -1.924086 h 0.323839 v 0.213596 q 0.144694,-0.129191 0.285943,-0.198093 0.141249,-0.0689 0.298,-0.0689 0.284221,0 0.444418,0.187758 0.160197,0.186035 0.160197,0.54088 z"
         style="stroke-width:0.26458332"
         id="path23083" />
    </g>
  </g>
</svg>
