<?xml version="1.0" encoding="UTF-8" standalone="no"?>
<!-- Created with Inkscape (http://www.inkscape.org/) -->

<svg
   xmlns:dc="http://purl.org/dc/elements/1.1/"
   xmlns:cc="http://creativecommons.org/ns#"
   xmlns:rdf="http://www.w3.org/1999/02/22-rdf-syntax-ns#"
   xmlns:svg="http://www.w3.org/2000/svg"
   xmlns="http://www.w3.org/2000/svg"
   xmlns:sodipodi="http://sodipodi.sourceforge.net/DTD/sodipodi-0.dtd"
   xmlns:inkscape="http://www.inkscape.org/namespaces/inkscape"
   width="102.17013mm"
   height="102.0909mm"
   viewBox="0 0 102.17013 102.0909"
   version="1.1"
   id="svg8"
   inkscape:version="0.92.4 (5da689c313, 2019-01-14)"
   sodipodi:docname="besseljy_convergence.svg">
  <defs
     id="defs2">
    <inkscape:path-effect
       effect="spiro"
       id="path-effect5402"
       is_visible="true" />
    <marker
       inkscape:stockid="Arrow2Mend"
       orient="auto"
       refY="0"
       refX="0"
       id="Arrow2Mend"
       style="overflow:visible"
       inkscape:isstock="true">
      <path
         id="path4780"
         style="fill:#000000;fill-opacity:1;fill-rule:evenodd;stroke:#000000;stroke-width:0.625;stroke-linejoin:round;stroke-opacity:1"
         d="M 8.7185878,4.0337352 -2.2072895,0.01601326 8.7185884,-4.0017078 c -1.7454984,2.3720609 -1.7354408,5.6174519 -6e-7,8.035443 z"
         transform="scale(-0.6)"
         inkscape:connector-curvature="0" />
    </marker>
    <marker
       inkscape:stockid="Arrow2Mend"
       orient="auto"
       refY="0"
       refX="0"
       id="Arrow2Mend-6"
       style="overflow:visible"
       inkscape:isstock="true">
      <path
         inkscape:connector-curvature="0"
         id="path4780-6"
         style="fill:#000000;fill-opacity:1;fill-rule:evenodd;stroke:#000000;stroke-width:0.625;stroke-linejoin:round;stroke-opacity:1"
         d="M 8.7185878,4.0337352 -2.2072895,0.01601326 8.7185884,-4.0017078 c -1.7454984,2.3720609 -1.7354408,5.6174519 -6e-7,8.035443 z"
         transform="scale(-0.6)" />
    </marker>
  </defs>
  <sodipodi:namedview
     id="base"
     pagecolor="#ffffff"
     bordercolor="#666666"
     borderopacity="1.0"
     inkscape:pageopacity="0.0"
     inkscape:pageshadow="2"
     inkscape:zoom="1.979899"
     inkscape:cx="112.24627"
     inkscape:cy="135.15891"
     inkscape:document-units="mm"
     inkscape:current-layer="layer1"
     showgrid="true"
     inkscape:snap-bbox="true"
     inkscape:snap-center="true"
     inkscape:window-width="1920"
     inkscape:window-height="1017"
     inkscape:window-x="-8"
     inkscape:window-y="-8"
     inkscape:window-maximized="1"
     fit-margin-top="5"
     fit-margin-left="5"
     fit-margin-bottom="5"
     fit-margin-right="5">
    <inkscape:grid
       type="xygrid"
       id="grid4747"
       originx="1.4142116"
       originy="-198.66504" />
  </sodipodi:namedview>
  <metadata
     id="metadata5">
    <rdf:RDF>
      <cc:Work
         rdf:about="">
        <dc:format>image/svg+xml</dc:format>
        <dc:type
           rdf:resource="http://purl.org/dc/dcmitype/StillImage" />
        <dc:title></dc:title>
      </cc:Work>
    </rdf:RDF>
  </metadata>
  <g
     inkscape:label="レイヤー 1"
     inkscape:groupmode="layer"
     id="layer1"
     transform="translate(1.4142116,3.7559181)">
    <path
       style="fill:#ff0000;fill-opacity:0.35312501;stroke:#000000;stroke-width:0.75590551;stroke-linecap:butt;stroke-linejoin:miter;stroke-miterlimit:4;stroke-dasharray:none;stroke-dashoffset:0;stroke-opacity:1"
       d="M 37.794922,26.457031 V 64.251953 A 264.56693,264.56693 0 0 1 302.36133,328.81836 H 340.1582 V 26.457031 Z"
       transform="scale(0.26458333)"
       id="rect4749"
       inkscape:connector-curvature="0" />
    <path
       style="fill:none;stroke:#000000;stroke-width:0.5;stroke-linecap:butt;stroke-linejoin:miter;stroke-miterlimit:4;stroke-dasharray:none;stroke-opacity:1;marker-end:url(#Arrow2Mend)"
       d="M 10,87 H 94.999999"
       id="path4751"
       inkscape:connector-curvature="0" />
    <path
       style="fill:none;stroke:#000000;stroke-width:0.5;stroke-linecap:butt;stroke-linejoin:miter;stroke-miterlimit:4;stroke-dasharray:none;stroke-opacity:1;marker-end:url(#Arrow2Mend-6)"
       d="M 10,87 V 2.000001"
       id="path4751-0"
       inkscape:connector-curvature="0" />
    <path
       style="fill:none;stroke:#000000;stroke-width:0.5;stroke-linecap:butt;stroke-linejoin:miter;stroke-miterlimit:4;stroke-dasharray:none;stroke-opacity:1"
       d="m 10,84.999998 v 4"
       id="path5288"
       inkscape:connector-curvature="0" />
    <path
       style="fill:none;stroke:#000000;stroke-width:0.5;stroke-linecap:butt;stroke-linejoin:miter;stroke-miterlimit:4;stroke-dasharray:none;stroke-opacity:1"
       d="M 12,87 H 7.9999998"
       id="path5290"
       inkscape:connector-curvature="0" />
    <g
       aria-label="0"
       style="font-style:normal;font-variant:normal;font-weight:normal;font-stretch:normal;font-size:3.52777767px;line-height:1.25;font-family:Tahoma;-inkscape-font-specification:Tahoma;letter-spacing:0px;word-spacing:0px;fill:#000000;fill-opacity:1;stroke:none;stroke-width:0.26458332"
       id="text5294">
      <path
         d="m 10.819933,91.99828 q 0,0.690742 -0.201538,1.014581 Q 10.418579,93.334977 10,93.334977 q -0.4237465,0 -0.6218395,-0.329007 -0.198093,-0.329006 -0.198093,-1.004245 0,-0.694187 0.1998155,-1.01458 Q 9.5814211,90.665028 10,90.665028 q 0.423747,0 0.62184,0.332452 0.198093,0.332452 0.198093,1.0008 z m -0.440972,0.782037 q 0.04995,-0.127469 0.07062,-0.322117 0.02067,-0.194648 0.02067,-0.45992 0,-0.26355 -0.02067,-0.458198 -0.02067,-0.194648 -0.07235,-0.323839 -0.05168,-0.130913 -0.142971,-0.198093 -0.08957,-0.0689 -0.234267,-0.0689 -0.1429713,0 -0.2359889,0.0689 -0.091295,0.06718 -0.144694,0.201538 -0.051676,0.130914 -0.070624,0.33073 -0.018948,0.199815 -0.018948,0.451307 0,0.268718 0.015503,0.449585 0.017226,0.180868 0.072347,0.323839 0.049954,0.132636 0.1412489,0.204983 0.093018,0.07063 0.2411565,0.07063 0.1429725,0 0.2342675,-0.06718 0.09302,-0.0689 0.144694,-0.20326 z"
         style="stroke-width:0.26458332"
         id="path5387"
         inkscape:connector-curvature="0" />
    </g>
    <g
       aria-label="0"
       style="font-style:normal;font-variant:normal;font-weight:normal;font-stretch:normal;font-size:3.52777767px;line-height:1.25;font-family:Tahoma;-inkscape-font-specification:Tahoma;letter-spacing:0px;word-spacing:0px;fill:#000000;fill-opacity:1;stroke:none;stroke-width:0.26458332"
       id="text5294-1">
      <path
         d="m 5.8199329,86.99828 q 0,0.690742 -0.2015381,1.014581 -0.1998155,0.322116 -0.6183946,0.322116 -0.4237467,0 -0.6218397,-0.329007 -0.198093,-0.329006 -0.198093,-1.004245 0,-0.694187 0.1998155,-1.01458 0.2015381,-0.322117 0.6201172,-0.322117 0.4237467,0 0.6218397,0.332452 0.198093,0.332452 0.198093,1.0008 z m -0.4409722,0.782037 q 0.049954,-0.127469 0.070624,-0.322117 0.020671,-0.194648 0.020671,-0.45992 0,-0.26355 -0.020671,-0.458198 -0.020671,-0.194648 -0.072347,-0.323839 -0.051676,-0.130913 -0.1429714,-0.198093 -0.089573,-0.0689 -0.2342665,-0.0689 -0.1429715,0 -0.2359891,0.0689 -0.091295,0.06718 -0.144694,0.201538 -0.051676,0.130914 -0.070624,0.33073 -0.018948,0.199815 -0.018948,0.451307 0,0.268718 0.015503,0.449585 0.017226,0.180868 0.072347,0.323839 0.049954,0.132636 0.1412489,0.204983 0.093018,0.07063 0.2411567,0.07063 0.1429714,0 0.2342665,-0.06718 0.093018,-0.0689 0.144694,-0.20326 z"
         style="stroke-width:0.26458332"
         id="path5384"
         inkscape:connector-curvature="0" />
    </g>
    <g
       aria-label="Re z"
       style="font-style:normal;font-variant:normal;font-weight:normal;font-stretch:normal;font-size:3.52777767px;line-height:1.25;font-family:Tahoma;-inkscape-font-specification:Tahoma;letter-spacing:0px;word-spacing:0px;fill:#000000;fill-opacity:1;stroke:none;stroke-width:0.26458332"
       id="text5316">
      <path
         d="m 48.789911,93.26004 h -0.442695 l -0.813042,-1.019748 h -0.389296 v 1.019748 h -0.341064 v -2.564873 h 0.661458 q 0.220486,0 0.368625,0.02412 0.149862,0.02412 0.28422,0.111966 0.134359,0.08613 0.211874,0.222209 0.07924,0.136081 0.07924,0.337619 0,0.282498 -0.142972,0.471978 -0.142971,0.18948 -0.389295,0.280775 z m -0.73725,-1.843126 q 0,-0.111965 -0.03962,-0.198093 Q 47.973421,91.130971 47.89074,91.07585 47.81839,91.02762 47.72193,91.00867 47.625469,90.988 47.482497,90.988 h -0.337619 v 0.968072 h 0.299723 q 0.146417,0 0.26355,-0.02584 0.117133,-0.02584 0.199816,-0.106797 0.07407,-0.07235 0.10852,-0.172255 0.03617,-0.09991 0.03617,-0.234267 z"
         style="stroke-width:0.26458332"
         id="path5377"
         inkscape:connector-curvature="0" />
      <path
         d="m 49.804491,93.304827 q -0.45992,0 -0.714857,-0.258383 -0.253214,-0.260104 -0.253214,-0.73725 0,-0.470256 0.246324,-0.747586 0.246324,-0.279052 0.644233,-0.279052 0.179145,0 0.316949,0.05168 0.137803,0.05168 0.241156,0.161919 0.103353,0.110243 0.158475,0.27044 0.05512,0.158475 0.05512,0.389296 v 0.1757 h -1.333252 q 0,0.335897 0.16881,0.513319 0.16881,0.177423 0.46681,0.177423 0.106798,0 0.208429,-0.02412 0.103353,-0.02412 0.186035,-0.06201 0.08785,-0.03962 0.148139,-0.07579 0.06029,-0.0379 0.09991,-0.07062 h 0.01895 v 0.353122 q -0.05684,0.02239 -0.141249,0.05684 -0.0844,0.03273 -0.151584,0.05168 -0.09474,0.02584 -0.172255,0.03962 -0.07579,0.01378 -0.192926,0.01378 z m 0.378961,-1.221287 q -0.0034,-0.130913 -0.03101,-0.225654 -0.02756,-0.09474 -0.07924,-0.160196 -0.05684,-0.07235 -0.146417,-0.110244 -0.08785,-0.0379 -0.218763,-0.0379 -0.129191,0 -0.220486,0.03962 -0.08957,0.0379 -0.163642,0.111966 -0.07235,0.07579 -0.110243,0.168809 -0.0379,0.0913 -0.04823,0.213596 z"
         style="stroke-width:0.26458332"
         id="path5379"
         inkscape:connector-curvature="0" />
      <path
         d="m 53.196188,93.26004 h -1.414211 v -0.239434 l 1.005967,-1.417657 h -0.964626 v -0.266994 h 1.353922 v 0.230821 L 52.166105,92.9896 h 1.030083 z"
         style="stroke-width:0.26458332"
         id="path5381"
         inkscape:connector-curvature="0" />
    </g>
    <g
       aria-label="Im z"
       transform="rotate(-90)"
       style="font-style:normal;font-variant:normal;font-weight:normal;font-stretch:normal;font-size:3.52777767px;line-height:1.25;font-family:Tahoma;-inkscape-font-specification:Tahoma;letter-spacing:0px;word-spacing:0px;fill:#000000;fill-opacity:1;stroke:none;stroke-width:0.26458332"
       id="text5320">
      <path
         d="M -49.364198,6.2824368 H -50.35983 V 6.0206096 h 0.327284 V 3.9793906 H -50.35983 V 3.7175633 h 0.995632 v 0.2618273 h -0.327284 v 2.041219 h 0.327284 z"
         style="stroke-width:0.26458332"
         id="path5370"
         inkscape:connector-curvature="0" />
      <path
         d="M -46.785544,6.2824368 V 5.169671 q 0,-0.1326361 -0.01033,-0.2446017 -0.01033,-0.1136882 -0.04306,-0.1774224 -0.03445,-0.068902 -0.09819,-0.1016304 -0.06373,-0.032728 -0.172255,-0.032728 -0.09991,0 -0.215318,0.062012 -0.113688,0.060289 -0.235989,0.1756998 0.0017,0.029283 0.0034,0.070625 0.0034,0.039619 0.0034,0.09474 v 1.2660725 h -0.323839 V 5.169671 q 0,-0.1326361 -0.01033,-0.2446017 -0.01034,-0.1136882 -0.04306,-0.1774224 -0.03445,-0.068902 -0.09819,-0.1016304 -0.06373,-0.032728 -0.172255,-0.032728 -0.105075,0 -0.220486,0.065457 -0.115411,0.065457 -0.223931,0.1670872 v 1.4366047 h -0.323839 V 4.3583511 h 0.323839 V 4.571947 q 0.127468,-0.1274685 0.251492,-0.1963704 0.125746,-0.070624 0.275607,-0.070624 0.170533,0 0.301446,0.077515 0.132636,0.077515 0.201538,0.2549371 0.146417,-0.163642 0.285943,-0.2480469 0.139527,-0.084405 0.303169,-0.084405 0.124023,0 0.225653,0.039619 0.101631,0.037896 0.177423,0.1240234 0.07751,0.08785 0.118856,0.2187636 0.04306,0.1309136 0.04306,0.3290066 v 1.2660725 z"
         style="stroke-width:0.26458332"
         id="path5372"
         inkscape:connector-curvature="0" />
      <path
         d="m -43.640172,6.2824368 h -1.414211 V 6.0430027 l 1.005967,-1.4176567 h -0.964626 V 4.3583511 h 1.353922 v 0.2308214 l -1.011135,1.4228244 h 1.030083 z"
         style="stroke-width:0.26458332"
         id="path5374"
         inkscape:connector-curvature="0" />
    </g>
    <g
       aria-label="∞"
       style="font-style:normal;font-variant:normal;font-weight:normal;font-stretch:normal;font-size:3.52777767px;line-height:1.25;font-family:Tahoma;-inkscape-font-specification:Tahoma;letter-spacing:0px;word-spacing:0px;fill:#000000;fill-opacity:1;stroke:none;stroke-width:0.26458332"
       id="text5324">
      <path
         d="m 91.414212,91.981913 q 0,0.394464 -0.19637,0.633898 -0.194648,0.237711 -0.544325,0.237711 -0.218764,0 -0.403076,-0.137803 -0.184313,-0.139527 -0.289388,-0.377238 -0.132636,0.263549 -0.304891,0.389295 -0.170532,0.125746 -0.406521,0.125746 -0.313504,0 -0.499539,-0.235989 -0.184313,-0.235989 -0.184313,-0.599446 0,-0.406521 0.201538,-0.639065 0.203261,-0.232544 0.539158,-0.232544 0.218763,0 0.403076,0.139526 0.184312,0.137804 0.289388,0.375515 0.129191,-0.258382 0.304891,-0.38585 0.1757,-0.129191 0.406521,-0.129191 0.313504,0 0.497816,0.235989 0.186035,0.235989 0.186035,0.599446 z m -1.514119,-0.113688 q -0.103353,-0.201538 -0.249769,-0.301446 -0.144694,-0.10163 -0.299724,-0.10163 -0.225653,0 -0.349677,0.141249 -0.122301,0.141249 -0.122301,0.411689 0,0.244602 0.106798,0.380683 0.108521,0.134359 0.289388,0.134359 0.146417,0 0.246325,-0.06374 0.09991,-0.06546 0.213595,-0.265272 0.04306,-0.07579 0.0844,-0.158474 0.04306,-0.08268 0.08096,-0.177423 z m 1.221286,0.113688 q 0,-0.248047 -0.10852,-0.380683 -0.108521,-0.134358 -0.287666,-0.134358 -0.151584,0 -0.249769,0.06718 -0.09819,0.06718 -0.211873,0.261827 -0.05684,0.09474 -0.0913,0.16881 -0.03273,0.07235 -0.07235,0.167087 0.09991,0.199815 0.246324,0.301446 0.148139,0.10163 0.303168,0.10163 0.225654,0 0.347955,-0.139526 0.124023,-0.141249 0.124023,-0.413412 z"
         style="stroke-width:0.26458332"
         id="path5367"
         inkscape:connector-curvature="0" />
    </g>
    <g
       aria-label="∞"
       style="font-style:normal;font-variant:normal;font-weight:normal;font-stretch:normal;font-size:3.52777767px;line-height:1.25;font-family:Tahoma;-inkscape-font-specification:Tahoma;letter-spacing:0px;word-spacing:0px;fill:#000000;fill-opacity:1;stroke:none;stroke-width:0.26458332"
       id="text5324-4">
      <path
         d="m 6.4142117,6.9819133 q 0,0.3944634 -0.1963704,0.6338975 -0.1946479,0.2377116 -0.5443251,0.2377116 -0.2187635,0 -0.4030761,-0.1378038 -0.1843126,-0.1395264 -0.289388,-0.3772379 -0.1326362,0.2635498 -0.304891,0.3892957 -0.1705322,0.125746 -0.4065212,0.125746 -0.3135037,0 -0.4995389,-0.235989 -0.1843126,-0.2359891 -0.1843126,-0.5994466 0,-0.4065213 0.2015381,-0.6390652 0.2032606,-0.2325439 0.5391574,-0.2325439 0.2187636,0 0.4030762,0.1395263 0.1843126,0.1378038 0.289388,0.3755154 0.1291911,-0.2583821 0.304891,-0.3858507 0.1756998,-0.129191 0.4065212,-0.129191 0.3135037,0 0.4978163,0.235989 0.1860351,0.235989 0.1860351,0.5994466 z M 4.9000923,6.8682251 Q 4.7967395,6.6666871 4.6503229,6.5667793 4.5056289,6.465149 4.3505996,6.465149 q -0.2256537,0 -0.3496772,0.1412489 -0.1223009,0.1412489 -0.1223009,0.4116889 0,0.2446018 0.106798,0.380683 0.1085205,0.1343587 0.289388,0.1343587 0.1464166,0 0.2463243,-0.063734 0.099908,-0.065457 0.2135959,-0.2652724 0.043064,-0.075792 0.084405,-0.1584744 0.043064,-0.082682 0.08096,-0.1774226 z m 1.2212863,0.1136882 q 0,-0.2480469 -0.1085205,-0.3806831 -0.1085205,-0.1343587 -0.2876654,-0.1343587 -0.1515842,0 -0.2497695,0.067179 -0.098185,0.067179 -0.2118733,0.2618272 -0.056844,0.09474 -0.091295,0.1688097 -0.032729,0.072347 -0.072347,0.1670871 0.099908,0.1998156 0.2463243,0.3014459 0.1481391,0.1016303 0.3031684,0.1016303 0.2256537,0 0.3479546,-0.1395264 0.1240234,-0.1412489 0.1240234,-0.413411 z"
         style="stroke-width:0.26458332"
         id="path5364"
         inkscape:connector-curvature="0" />
    </g>
    <g
       aria-label="Hankel"
       style="font-style:normal;font-variant:normal;font-weight:normal;font-stretch:normal;font-size:3.52777767px;line-height:1.25;font-family:Tahoma;-inkscape-font-specification:Tahoma;letter-spacing:0px;word-spacing:0px;fill:#000000;fill-opacity:1;stroke:none;stroke-width:0.26458332"
       id="text5349">
      <path
         d="m 76.796922,13.313442 h -0.341064 v -1.255737 h -1.179945 v 1.255737 h -0.341065 v -2.564873 h 0.341065 v 1.005968 h 1.179945 v -1.005968 h 0.341064 z"
         style="stroke-width:0.26458332"
         id="path5351"
         inkscape:connector-curvature="0" />
      <path
         d="m 78.367886,12.839742 v -0.53399 q -0.115411,0.01033 -0.292833,0.02928 -0.1757,0.01723 -0.284221,0.04995 -0.129191,0.03962 -0.213595,0.122301 -0.0844,0.08096 -0.0844,0.227376 0,0.165365 0.09302,0.24977 0.09302,0.0844 0.272163,0.0844 0.153307,0 0.27733,-0.06546 0.124023,-0.06718 0.232544,-0.163642 z m 0,0.268717 q -0.03962,0.02928 -0.106798,0.08268 -0.06546,0.05168 -0.127469,0.08268 -0.08613,0.04479 -0.167087,0.0689 -0.07924,0.02412 -0.223931,0.02412 -0.118856,0 -0.225654,-0.04479 -0.106798,-0.04479 -0.187757,-0.125746 -0.07751,-0.07924 -0.124024,-0.194648 -0.04651,-0.117133 -0.04651,-0.246324 0,-0.199816 0.0844,-0.339342 0.08441,-0.141249 0.266995,-0.223931 0.16192,-0.07407 0.382406,-0.101631 0.220486,-0.02928 0.475423,-0.04306 v -0.06201 q 0,-0.113688 -0.03445,-0.18259 -0.03445,-0.07062 -0.09646,-0.108521 -0.06201,-0.03962 -0.151584,-0.05168 -0.08957,-0.01378 -0.184313,-0.01378 -0.111965,0 -0.263549,0.03445 -0.151584,0.03273 -0.303169,0.09646 h -0.01895 V 11.43069 q 0.08957,-0.02584 0.25666,-0.05684 0.167087,-0.03101 0.330729,-0.03101 0.198093,0 0.334174,0.03101 0.136082,0.03101 0.244602,0.111965 0.105075,0.07924 0.156752,0.204983 0.05168,0.125746 0.05168,0.306614 v 1.316026 h -0.322116 z"
         style="stroke-width:0.26458332"
         id="path5353"
         inkscape:connector-curvature="0" />
      <path
         d="m 80.658874,13.313442 h -0.323839 v -1.09554 q 0,-0.132636 -0.01378,-0.246324 -0.01206,-0.115411 -0.04823,-0.184313 -0.03962,-0.07235 -0.110243,-0.106798 -0.07062,-0.03617 -0.192926,-0.03617 -0.120578,0 -0.249769,0.06546 -0.127469,0.06374 -0.24977,0.167087 v 1.436605 h -0.323839 v -1.924086 h 0.323839 v 0.213596 q 0.144694,-0.129191 0.285943,-0.198093 0.141249,-0.0689 0.298001,-0.0689 0.28422,0 0.444417,0.187758 0.160197,0.186035 0.160197,0.54088 z"
         style="stroke-width:0.26458332"
         id="path5355"
         inkscape:connector-curvature="0" />
      <path
         d="m 82.712151,13.313442 h -0.425469 l -0.718303,-0.928453 -0.127468,0.124023 v 0.80443 h -0.323839 v -2.680284 h 0.323839 v 1.569241 l 0.761366,-0.813043 h 0.403076 l -0.790649,0.80443 z"
         style="stroke-width:0.26458332"
         id="path5357"
         inkscape:connector-curvature="0" />
      <path
         d="m 83.709506,13.358228 q -0.45992,0 -0.714857,-0.258382 -0.253215,-0.260104 -0.253215,-0.73725 0,-0.470256 0.246325,-0.747586 0.246324,-0.279053 0.644232,-0.279053 0.179145,0 0.316949,0.05168 0.137804,0.05168 0.241157,0.161919 0.103353,0.110243 0.158474,0.27044 0.05512,0.158475 0.05512,0.389296 v 0.1757 h -1.333252 q 0,0.335897 0.168809,0.513319 0.16881,0.177423 0.466811,0.177423 0.106798,0 0.208428,-0.02412 0.103353,-0.02412 0.186035,-0.06201 0.08785,-0.03962 0.148139,-0.07579 0.06029,-0.0379 0.09991,-0.07062 h 0.01895 v 0.353122 q -0.05684,0.02239 -0.141249,0.05684 -0.08441,0.03273 -0.151584,0.05168 -0.09474,0.02584 -0.172255,0.03962 -0.07579,0.01378 -0.192925,0.01378 z m 0.37896,-1.221286 q -0.0034,-0.130913 -0.031,-0.225654 -0.02756,-0.09474 -0.07924,-0.160197 -0.05684,-0.07235 -0.146416,-0.110243 -0.08785,-0.0379 -0.218764,-0.0379 -0.129191,0 -0.220486,0.03962 -0.08957,0.0379 -0.163642,0.111966 -0.07235,0.07579 -0.110243,0.168809 -0.0379,0.09129 -0.04823,0.213596 z"
         style="stroke-width:0.26458332"
         id="path5359"
         inkscape:connector-curvature="0" />
      <path
         d="m 85.065151,13.313442 h -0.323839 v -2.680284 h 0.323839 z"
         style="stroke-width:0.26458332"
         id="path5361"
         inkscape:connector-curvature="0" />
    </g>
    <path
       style="fill:#00ff00;fill-opacity:0.3625;stroke:#000000;stroke-width:0.99999994px;stroke-linecap:butt;stroke-linejoin:miter;stroke-opacity:1"
       d="M 99.833984 305.21875 L 80.935547 324.11719 L 43.140625 324.11719 L 43.140625 335.45508 A 7.5590551 7.5590551 0 0 1 50.699219 343.01367 L 345.50195 343.01367 L 345.50195 305.21875 L 99.833984 305.21875 z "
       transform="matrix(0.26458333,0,0,0.26458333,-1.4142116,-3.7559181)"
       id="path5390" />
    <g
       aria-label="Miller Backward"
       style="font-style:normal;font-variant:normal;font-weight:normal;font-stretch:normal;font-size:3.52777767px;line-height:1.25;font-family:Tahoma;-inkscape-font-specification:Tahoma;letter-spacing:0px;word-spacing:0px;fill:#000000;fill-opacity:1;stroke:none;stroke-width:0.26458332"
       id="text5394">
      <path
         d="m 50.249518,83.313461 h -0.341064 v -2.210028 l -0.668349,1.503784 H 49.0334 l -0.663181,-1.503784 v 2.210028 h -0.318671 v -2.564873 h 0.465087 l 0.640788,1.427992 0.618395,-1.427992 h 0.4737 z"
         style="stroke-width:0.26458332"
         id="path5434" />
      <path
         d="m 51.078064,83.313461 h -0.323839 v -1.924085 h 0.323839 z m 0.02239,-2.246202 h -0.368625 v -0.335897 h 0.368625 z"
         style="stroke-width:0.26458332"
         id="path5436" />
      <path
         d="m 51.884216,83.313461 h -0.323839 v -2.680284 h 0.323839 z"
         style="stroke-width:0.26458332"
         id="path5438" />
      <path
         d="M 52.690369,83.313461 H 52.36653 v -2.680284 h 0.323839 z"
         style="stroke-width:0.26458332"
         id="path5440" />
      <path
         d="m 54.001227,83.358248 q -0.45992,0 -0.714857,-0.258383 -0.253214,-0.260104 -0.253214,-0.73725 0,-0.470256 0.246324,-0.747586 0.246324,-0.279052 0.644233,-0.279052 0.179145,0 0.316948,0.05168 0.137804,0.05168 0.241157,0.161919 0.103353,0.110244 0.158475,0.27044 0.05512,0.158475 0.05512,0.389296 v 0.1757 h -1.333252 q 0,0.335897 0.16881,0.513319 0.16881,0.177423 0.46681,0.177423 0.106798,0 0.208429,-0.02412 0.103352,-0.02412 0.186035,-0.06201 0.08785,-0.03962 0.148139,-0.07579 0.06029,-0.0379 0.09991,-0.07062 h 0.01895 v 0.353122 q -0.05685,0.02239 -0.141249,0.05684 -0.0844,0.03273 -0.151585,0.05168 -0.09474,0.02584 -0.172254,0.03962 -0.07579,0.01378 -0.192926,0.01378 z m 0.378961,-1.221287 q -0.0034,-0.130913 -0.03101,-0.225654 -0.02756,-0.09474 -0.07924,-0.160196 -0.05684,-0.07235 -0.146417,-0.110244 -0.08785,-0.0379 -0.218763,-0.0379 -0.129191,0 -0.220486,0.03962 -0.08957,0.0379 -0.163642,0.111966 -0.07235,0.07579 -0.110244,0.168809 -0.0379,0.0913 -0.04823,0.213596 z"
         style="stroke-width:0.26458332"
         id="path5442" />
      <path
         d="m 56.045892,81.73733 h -0.01723 q -0.03617,-0.01033 -0.07751,-0.01206 -0.03962,-0.0034 -0.09646,-0.0034 -0.130914,0 -0.260105,0.05684 -0.129191,0.05684 -0.244602,0.16881 v 1.36598 h -0.323839 v -1.924085 h 0.323839 v 0.285942 q 0.177423,-0.156751 0.308336,-0.220486 0.132636,-0.06546 0.25666,-0.06546 0.04995,0 0.07407,0.0034 0.02584,0.0017 0.05685,0.0069 z"
         style="stroke-width:0.26458332"
         id="path5444" />
      <path
         d="m 59.168871,82.526257 q 0,0.191203 -0.07235,0.337619 -0.07235,0.146417 -0.194648,0.241157 -0.144694,0.113688 -0.310059,0.16192 -0.165364,0.04651 -0.427191,0.04651 h -0.735528 v -2.564873 h 0.680406 q 0.273885,0 0.409966,0.01895 0.137804,0.01722 0.26355,0.0844 0.137804,0.07407 0.201538,0.194648 0.06374,0.118855 0.06374,0.280775 0,0.180867 -0.09646,0.323839 -0.09474,0.142971 -0.26355,0.223931 v 0.01378 q 0.229099,0.06201 0.354845,0.227377 0.125746,0.163642 0.125746,0.409966 z m -0.475423,-1.150662 q 0,-0.09302 -0.03101,-0.160197 -0.03101,-0.0689 -0.09991,-0.10852 -0.08268,-0.04651 -0.184313,-0.05684 -0.10163,-0.01034 -0.280775,-0.01034 h -0.327284 v 0.751031 h 0.387573 q 0.160197,0 0.235989,-0.0155 0.07579,-0.01723 0.156752,-0.0689 0.07751,-0.04995 0.110243,-0.130913 0.03273,-0.08096 0.03273,-0.199816 z m 0.120578,1.164442 q 0,-0.144694 -0.04134,-0.237711 -0.04134,-0.09474 -0.167087,-0.160197 -0.08096,-0.04306 -0.177423,-0.05512 -0.09474,-0.01206 -0.27044,-0.01206 h -0.387573 v 0.947401 h 0.27733 q 0.223932,0 0.353123,-0.02067 0.129191,-0.02067 0.227376,-0.08785 0.09646,-0.06718 0.141249,-0.151584 0.04479,-0.08613 0.04479,-0.222209 z"
         style="stroke-width:0.26458332"
         id="path5446" />
      <path
         d="m 60.558966,82.839761 v -0.53399 q -0.11541,0.01034 -0.292833,0.02928 -0.175699,0.01723 -0.28422,0.04995 -0.129191,0.03962 -0.213596,0.122301 -0.08441,0.08096 -0.08441,0.227376 0,0.165365 0.09302,0.24977 0.09302,0.08441 0.272162,0.08441 0.153307,0 0.277331,-0.06546 0.124023,-0.06718 0.232543,-0.163642 z m 0,0.268717 q -0.03962,0.02928 -0.106797,0.08268 -0.06546,0.05168 -0.127469,0.08268 -0.08613,0.04479 -0.167087,0.0689 -0.07924,0.02412 -0.223931,0.02412 -0.118856,0 -0.225654,-0.04479 -0.106798,-0.04479 -0.187758,-0.125746 -0.07751,-0.07924 -0.124023,-0.194648 -0.04651,-0.117133 -0.04651,-0.246324 0,-0.199816 0.0844,-0.339342 0.08441,-0.141249 0.266995,-0.223931 0.161919,-0.07407 0.382405,-0.101631 0.220486,-0.02928 0.475423,-0.04306 v -0.06201 q 0,-0.113688 -0.03445,-0.18259 -0.03445,-0.07062 -0.09646,-0.108521 -0.06201,-0.03962 -0.151584,-0.05168 -0.08957,-0.01378 -0.184313,-0.01378 -0.111966,0 -0.26355,0.03445 -0.151584,0.03273 -0.303168,0.09646 h -0.01895 v -0.329006 q 0.08957,-0.02584 0.256659,-0.05684 0.167088,-0.03101 0.33073,-0.03101 0.198093,0 0.334174,0.03101 0.136081,0.031 0.244602,0.111965 0.105075,0.07924 0.156751,0.204983 0.05168,0.125746 0.05168,0.306614 v 1.316026 h -0.322117 z"
         style="stroke-width:0.26458332"
         id="path5448" />
      <path
         d="m 62.102369,83.356525 q -0.198093,0 -0.363457,-0.06029 -0.165365,-0.06201 -0.284221,-0.186035 -0.118856,-0.124024 -0.184312,-0.311781 -0.06546,-0.189481 -0.06546,-0.444418 0,-0.253214 0.06718,-0.437527 0.0689,-0.184312 0.18259,-0.310058 0.113688,-0.125746 0.282498,-0.192926 0.170532,-0.0689 0.36518,-0.0689 0.158475,0 0.304891,0.04479 0.148139,0.04479 0.26355,0.103352 v 0.363458 h -0.01895 q -0.03445,-0.02928 -0.08957,-0.06718 -0.0534,-0.0379 -0.130913,-0.07751 -0.06718,-0.03445 -0.158475,-0.06029 -0.09129,-0.02584 -0.175699,-0.02584 -0.251492,0 -0.404799,0.191202 -0.151584,0.189481 -0.151584,0.537435 0,0.341065 0.146416,0.532267 0.148139,0.189481 0.409967,0.189481 0.158474,0 0.301445,-0.06546 0.142972,-0.06546 0.253215,-0.16881 h 0.01895 v 0.363458 q -0.04823,0.02239 -0.120578,0.05512 -0.07235,0.03101 -0.130914,0.04651 -0.08268,0.02412 -0.148139,0.03617 -0.06546,0.01378 -0.16881,0.01378 z"
         style="stroke-width:0.26458332"
         id="path5450" />
      <path
         d="m 64.558722,83.313461 h -0.425469 l -0.718302,-0.928453 -0.127469,0.124024 v 0.804429 h -0.323839 v -2.680284 h 0.323839 v 1.569241 l 0.761366,-0.813042 h 0.403076 l -0.790649,0.804429 z"
         style="stroke-width:0.26458332"
         id="path5452" />
      <path
         d="m 67.052972,81.389376 -0.487481,1.924085 h -0.299723 l -0.470256,-1.483113 -0.46681,1.483113 h -0.298001 l -0.492649,-1.924085 h 0.33762 l 0.339341,1.490003 0.456476,-1.490003 h 0.266995 l 0.468532,1.490003 0.320394,-1.490003 z"
         style="stroke-width:0.26458332"
         id="path5454" />
      <path
         d="m 68.413785,82.839761 v -0.53399 q -0.115411,0.01034 -0.292833,0.02928 -0.1757,0.01723 -0.284221,0.04995 -0.129191,0.03962 -0.213596,0.122301 -0.0844,0.08096 -0.0844,0.227376 0,0.165365 0.09302,0.24977 0.09302,0.08441 0.272163,0.08441 0.153306,0 0.27733,-0.06546 0.124023,-0.06718 0.232544,-0.163642 z m 0,0.268717 q -0.03962,0.02928 -0.106798,0.08268 -0.06546,0.05168 -0.127469,0.08268 -0.08613,0.04479 -0.167087,0.0689 -0.07924,0.02412 -0.223931,0.02412 -0.118856,0 -0.225654,-0.04479 -0.106798,-0.04479 -0.187757,-0.125746 -0.07752,-0.07924 -0.124024,-0.194648 -0.04651,-0.117133 -0.04651,-0.246324 0,-0.199816 0.08441,-0.339342 0.08441,-0.141249 0.266995,-0.223931 0.16192,-0.07407 0.382406,-0.101631 0.220486,-0.02928 0.475423,-0.04306 v -0.06201 q 0,-0.113688 -0.03445,-0.18259 -0.03445,-0.07062 -0.09646,-0.108521 -0.06201,-0.03962 -0.151584,-0.05168 -0.08957,-0.01378 -0.184313,-0.01378 -0.111965,0 -0.263549,0.03445 -0.151585,0.03273 -0.303169,0.09646 h -0.01895 v -0.329006 q 0.08957,-0.02584 0.25666,-0.05684 0.167087,-0.03101 0.330729,-0.03101 0.198093,0 0.334174,0.03101 0.136081,0.031 0.244602,0.111965 0.105075,0.07924 0.156752,0.204983 0.05168,0.125746 0.05168,0.306614 v 1.316026 h -0.322116 z"
         style="stroke-width:0.26458332"
         id="path5456" />
      <path
         d="m 70.212124,81.73733 h -0.01723 q -0.03617,-0.01033 -0.07751,-0.01206 -0.03962,-0.0034 -0.09646,-0.0034 -0.130914,0 -0.260105,0.05684 -0.129191,0.05684 -0.244602,0.16881 v 1.36598 h -0.323839 v -1.924085 h 0.323839 v 0.285942 q 0.177423,-0.156751 0.308336,-0.220486 0.132637,-0.06546 0.25666,-0.06546 0.04995,0 0.07407,0.0034 0.02584,0.0017 0.05684,0.0069 z"
         style="stroke-width:0.26458332"
         id="path5458" />
      <path
         d="m 71.948451,83.313461 h -0.323839 v -0.19637 q -0.07579,0.06373 -0.130913,0.105075 -0.05512,0.04134 -0.129191,0.07579 -0.0689,0.03273 -0.142972,0.04995 -0.07407,0.01895 -0.172255,0.01895 -0.156751,0 -0.29111,-0.06546 -0.132636,-0.06546 -0.225654,-0.191202 -0.09474,-0.127469 -0.146416,-0.313504 -0.05168,-0.187758 -0.05168,-0.430637 0,-0.253214 0.06546,-0.437527 0.06546,-0.186035 0.180867,-0.323839 0.105076,-0.125746 0.253215,-0.19637 0.149862,-0.07235 0.313504,-0.07235 0.144694,0 0.251492,0.03273 0.106798,0.03101 0.225653,0.09819 v -0.833713 h 0.323839 z m -0.323839,-0.468533 v -1.10932 q -0.120578,-0.05857 -0.217041,-0.08096 -0.09474,-0.02239 -0.206705,-0.02239 -0.24977,0 -0.391019,0.187757 -0.141249,0.186036 -0.141249,0.539158 0,0.339342 0.108521,0.520209 0.10852,0.179145 0.347955,0.179145 0.127468,0 0.256659,-0.05684 0.129191,-0.05857 0.242879,-0.156752 z"
         style="stroke-width:0.26458332"
         id="path5460" />
    </g>
    <path
       style="fill:#0000ff;stroke:#000000;stroke-width:0.99999994px;stroke-linecap:butt;stroke-linejoin:miter;stroke-opacity:1;fill-opacity:0.35294119"
       d="M 43.140625 40.652344 L 43.140625 343.01367 L 99.833984 343.01367 C 114.22132 305.8464 126.83841 267.99512 137.62891 229.62891 C 155.0386 167.72779 167.68619 104.48787 175.42383 40.652344 L 43.140625 40.652344 z "
       transform="matrix(0.26458333,0,0,0.26458333,-1.4142116,-3.7559181)"
       id="path5400" />
    <g
       aria-label="Power Series"
       style="font-style:normal;font-variant:normal;font-weight:normal;font-stretch:normal;font-size:3.52777767px;line-height:1.25;font-family:Tahoma;-inkscape-font-specification:Tahoma;letter-spacing:0px;word-spacing:0px;fill:#000000;fill-opacity:1;stroke:none;stroke-width:0.26458332"
       id="text5409">
      <path
         d="m 16.755886,26.487557 q 0,0.167087 -0.06029,0.316949 -0.05857,0.148139 -0.163642,0.253215 -0.132636,0.130913 -0.311781,0.198093 -0.179145,0.06718 -0.45303,0.06718 h -0.289388 v 0.956014 h -0.341064 v -2.564874 h 0.644232 q 0.227377,0 0.387574,0.0379 0.160197,0.0379 0.282498,0.122301 0.142971,0.09819 0.223931,0.24977 0.08096,0.149861 0.08096,0.363457 z m -0.354844,0.0086 q 0,-0.132636 -0.04651,-0.230821 -0.04479,-0.09819 -0.137804,-0.160197 -0.08096,-0.0534 -0.18948,-0.07579 -0.106798,-0.02239 -0.266995,-0.02239 h -0.282498 v 1.024915 H 15.7103 q 0.206706,0 0.334174,-0.03273 0.127469,-0.03445 0.211874,-0.120578 0.07579,-0.07751 0.110243,-0.16881 0.03445,-0.09129 0.03445,-0.213596 z"
         style="stroke-width:0.26458332"
         id="path5411" />
      <path
         d="m 18.636909,27.317825 q 0,0.485759 -0.234267,0.751031 -0.234266,0.26355 -0.623562,0.26355 -0.401354,0 -0.632175,-0.272163 -0.229099,-0.273885 -0.229099,-0.742418 0,-0.482313 0.235989,-0.749308 0.237712,-0.266995 0.625285,-0.266995 0.389296,0 0.623562,0.266995 0.234267,0.265272 0.234267,0.749308 z m -0.334175,0 q 0,-0.373793 -0.136081,-0.55466 -0.136081,-0.18259 -0.387573,-0.18259 -0.253215,0 -0.391019,0.18259 -0.136081,0.180867 -0.136081,0.55466 0,0.361735 0.136081,0.549493 0.137804,0.186035 0.391019,0.186035 0.249769,0 0.38585,-0.18259 0.137804,-0.184312 0.137804,-0.552938 z"
         style="stroke-width:0.26458332"
         id="path5413" />
      <path
         d="m 21.30169,26.354921 -0.487481,1.924086 h -0.299724 l -0.470255,-1.483114 -0.466811,1.483114 h -0.298 L 18.78677,26.354921 h 0.337619 l 0.339342,1.490004 0.456475,-1.490004 h 0.266995 l 0.468533,1.490004 0.320394,-1.490004 z"
         style="stroke-width:0.26458332"
         id="path5415" />
      <path
         d="m 22.423068,28.323793 q -0.45992,0 -0.714857,-0.258382 -0.253214,-0.260105 -0.253214,-0.73725 0,-0.470256 0.246324,-0.747586 0.246324,-0.279053 0.644233,-0.279053 0.179145,0 0.316949,0.05168 0.137803,0.05168 0.241156,0.161919 0.103353,0.110243 0.158475,0.27044 0.05512,0.158474 0.05512,0.389296 v 0.1757 h -1.333252 q 0,0.335897 0.16881,0.513319 0.16881,0.177422 0.46681,0.177422 0.106798,0 0.208429,-0.02412 0.103353,-0.02412 0.186035,-0.06201 0.08785,-0.03962 0.148139,-0.07579 0.06029,-0.0379 0.09991,-0.07062 h 0.01895 v 0.353123 q -0.05684,0.02239 -0.141249,0.05684 -0.08441,0.03273 -0.151584,0.05168 -0.09474,0.02584 -0.172255,0.03962 -0.07579,0.01378 -0.192926,0.01378 z m 0.378961,-1.221286 q -0.0034,-0.130914 -0.03101,-0.225654 -0.02756,-0.09474 -0.07924,-0.160197 -0.05684,-0.07235 -0.146417,-0.110243 -0.08785,-0.0379 -0.218763,-0.0379 -0.129191,0 -0.220486,0.03962 -0.08957,0.0379 -0.163642,0.111965 -0.07235,0.07579 -0.110243,0.16881 -0.0379,0.09129 -0.04823,0.213596 z"
         style="stroke-width:0.26458332"
         id="path5417" />
      <path
         d="m 24.467732,26.702876 h -0.01722 q -0.03617,-0.01034 -0.07752,-0.01206 -0.03962,-0.0034 -0.09646,-0.0034 -0.130913,0 -0.260104,0.05684 -0.129191,0.05684 -0.244602,0.16881 v 1.36598 h -0.323839 v -1.924086 h 0.323839 v 0.285943 q 0.177422,-0.156752 0.308336,-0.220486 0.132636,-0.06546 0.25666,-0.06546 0.04995,0 0.07407,0.0034 0.02584,0.0017 0.05684,0.0069 z"
         style="stroke-width:0.26458332"
         id="path5419" />
      <path
         d="m 26.565796,28.325516 q -0.279053,0 -0.475424,-0.05684 -0.194647,-0.05857 -0.366902,-0.142972 v -0.427192 h 0.02412 q 0.168809,0.158475 0.382405,0.246325 0.213596,0.08613 0.411689,0.08613 0.282498,0 0.427192,-0.117133 0.144694,-0.118856 0.144694,-0.311781 0,-0.153307 -0.07579,-0.24977 -0.07579,-0.09646 -0.241157,-0.142971 -0.118856,-0.03445 -0.217041,-0.05684 -0.09819,-0.02239 -0.246324,-0.06029 -0.132636,-0.03445 -0.237712,-0.08785 -0.105075,-0.0534 -0.186035,-0.139527 -0.07924,-0.08441 -0.124023,-0.198093 -0.04306,-0.11541 -0.04306,-0.265272 0,-0.311781 0.242879,-0.521932 0.242879,-0.211873 0.620117,-0.211873 0.215319,0 0.406522,0.04306 0.192925,0.04306 0.356567,0.122301 v 0.408244 h -0.02584 q -0.122301,-0.111966 -0.313504,-0.194648 -0.191203,-0.08441 -0.401354,-0.08441 -0.237711,0 -0.384128,0.111966 -0.146416,0.110243 -0.146416,0.29111 0,0.163643 0.08613,0.260105 0.08613,0.09646 0.249769,0.141249 0.108521,0.02928 0.265273,0.06718 0.156752,0.03617 0.260105,0.06718 0.265272,0.08096 0.387573,0.244602 0.122301,0.163642 0.122301,0.403076 0,0.149861 -0.06201,0.296278 -0.06029,0.146416 -0.170532,0.248047 -0.124024,0.111965 -0.280776,0.172255 -0.155029,0.06029 -0.389295,0.06029 z"
         style="stroke-width:0.26458332"
         id="path5421" />
      <path
         d="m 28.62424,28.323793 q -0.45992,0 -0.714857,-0.258382 -0.253215,-0.260105 -0.253215,-0.73725 0,-0.470256 0.246324,-0.747586 0.246325,-0.279053 0.644233,-0.279053 0.179145,0 0.316949,0.05168 0.137804,0.05168 0.241157,0.161919 0.103353,0.110243 0.158474,0.27044 0.05512,0.158474 0.05512,0.389296 v 0.1757 h -1.333252 q 0,0.335897 0.168809,0.513319 0.16881,0.177422 0.466811,0.177422 0.106798,0 0.208428,-0.02412 0.103353,-0.02412 0.186035,-0.06201 0.08785,-0.03962 0.148139,-0.07579 0.06029,-0.0379 0.09991,-0.07062 h 0.01895 v 0.353123 q -0.05684,0.02239 -0.141249,0.05684 -0.08441,0.03273 -0.151584,0.05168 -0.09474,0.02584 -0.172255,0.03962 -0.07579,0.01378 -0.192925,0.01378 z m 0.37896,-1.221286 q -0.0034,-0.130914 -0.03101,-0.225654 -0.02756,-0.09474 -0.07924,-0.160197 -0.05684,-0.07235 -0.146416,-0.110243 -0.08785,-0.0379 -0.218764,-0.0379 -0.129191,0 -0.220486,0.03962 -0.08957,0.0379 -0.163642,0.111965 -0.07235,0.07579 -0.110243,0.16881 -0.0379,0.09129 -0.04823,0.213596 z"
         style="stroke-width:0.26458332"
         id="path5423" />
      <path
         d="m 30.668904,26.702876 h -0.01722 q -0.03617,-0.01034 -0.07752,-0.01206 -0.03962,-0.0034 -0.09646,-0.0034 -0.130913,0 -0.260104,0.05684 -0.129192,0.05684 -0.244602,0.16881 v 1.36598 h -0.323839 v -1.924086 h 0.323839 v 0.285943 q 0.177422,-0.156752 0.308336,-0.220486 0.132636,-0.06546 0.256659,-0.06546 0.04995,0 0.07407,0.0034 0.02584,0.0017 0.05684,0.0069 z"
         style="stroke-width:0.26458332"
         id="path5425" />
      <path
         d="m 31.254571,28.279007 h -0.323839 v -1.924086 h 0.323839 z m 0.02239,-2.246202 h -0.368625 v -0.335897 h 0.368625 z"
         style="stroke-width:0.26458332"
         id="path5427" />
      <path
         d="m 32.56543,28.323793 q -0.459921,0 -0.714858,-0.258382 -0.253214,-0.260105 -0.253214,-0.73725 0,-0.470256 0.246324,-0.747586 0.246324,-0.279053 0.644233,-0.279053 0.179145,0 0.316949,0.05168 0.137804,0.05168 0.241156,0.161919 0.103353,0.110243 0.158475,0.27044 0.05512,0.158474 0.05512,0.389296 v 0.1757 h -1.333252 q 0,0.335897 0.16881,0.513319 0.16881,0.177422 0.466811,0.177422 0.106798,0 0.208428,-0.02412 0.103353,-0.02412 0.186035,-0.06201 0.08785,-0.03962 0.148139,-0.07579 0.06029,-0.0379 0.09991,-0.07062 h 0.01895 v 0.353123 q -0.05684,0.02239 -0.141249,0.05684 -0.08441,0.03273 -0.151584,0.05168 -0.09474,0.02584 -0.172255,0.03962 -0.07579,0.01378 -0.192925,0.01378 z m 0.37896,-1.221286 q -0.0034,-0.130914 -0.03101,-0.225654 -0.02756,-0.09474 -0.07924,-0.160197 -0.05684,-0.07235 -0.146416,-0.110243 -0.08785,-0.0379 -0.218764,-0.0379 -0.129191,0 -0.220486,0.03962 -0.08957,0.0379 -0.163642,0.111965 -0.07235,0.07579 -0.110243,0.16881 -0.0379,0.09129 -0.04823,0.213596 z"
         style="stroke-width:0.26458332"
         id="path5429" />
      <path
         d="m 34.110555,28.325516 q -0.192925,0 -0.361735,-0.05168 -0.167087,-0.05168 -0.27733,-0.110243 v -0.363457 h 0.01722 q 0.04134,0.03273 0.09646,0.07235 0.05684,0.03962 0.149862,0.08268 0.08268,0.0379 0.180867,0.06718 0.09991,0.02928 0.206706,0.02928 0.07751,0 0.165364,-0.01723 0.08785,-0.01895 0.130914,-0.04651 0.06029,-0.03962 0.08613,-0.0844 0.02756,-0.04479 0.02756,-0.134359 0,-0.115411 -0.06373,-0.173977 -0.06201,-0.05857 -0.222209,-0.09819 -0.06201,-0.0155 -0.161919,-0.03617 -0.09991,-0.02067 -0.184313,-0.04479 -0.220486,-0.06374 -0.320394,-0.196371 -0.09991,-0.134359 -0.09991,-0.323839 0,-0.260105 0.19637,-0.423747 0.19637,-0.163642 0.521932,-0.163642 0.160197,0 0.322116,0.03962 0.16192,0.03962 0.272163,0.09991 v 0.346232 h -0.01723 q -0.124023,-0.09818 -0.27733,-0.155029 -0.151584,-0.05684 -0.306613,-0.05684 -0.160197,0 -0.27044,0.06718 -0.110243,0.06718 -0.110243,0.20326 0,0.120579 0.06546,0.180868 0.06546,0.05857 0.21015,0.09646 0.07235,0.01895 0.160197,0.0379 0.08957,0.01722 0.187758,0.04134 0.213596,0.0534 0.320394,0.177422 0.10852,0.124024 0.10852,0.33762 0,0.124023 -0.04995,0.235989 -0.04823,0.110243 -0.142971,0.18948 -0.103353,0.08613 -0.234266,0.130914 -0.129192,0.04479 -0.325562,0.04479 z"
         style="stroke-width:0.26458332"
         id="path5431" />
    </g>
  </g>
</svg>
